<?xml version="1.0" encoding="UTF-8"?><svg id="Capa_2" xmlns="http://www.w3.org/2000/svg" viewBox="0 0 68.74 73.65"><defs><style>.cls-1{fill:none;stroke:#fff;stroke-miterlimit:10;stroke-width:.75px;}.cls-2{opacity:.45;}</style></defs><g id="Capa_1-2"><g class="cls-2"><path class="cls-1" d="m62.02.38c1.27,4.16,2.54,8.31,3.83,12.55-1.6.49-3.16.97-4.72,1.42-.14.04-.37-.04-.5-.14-4.03-3.19-8.05-6.38-12.18-9.66.98-.31,1.87-.59,2.75-.86,3.33-1.02,6.65-2.02,9.98-3.04.19-.06.37-.17.55-.26.09,0,.19,0,.28,0Z"/><path class="cls-1" d="m.46,19.2c2.39-.73,4.72-1.45,7.05-2.15.15-.04.39.02.51.12,4.04,3.19,8.06,6.39,12.22,9.69-5.22,1.6-10.31,3.16-15.41,4.72,0,.04,0,.09.01.13h63.48c.02.33.04.59.04.84,0,11.82,0,23.63,0,35.45,0,3.3-1.97,5.27-5.27,5.27-17.87,0-35.73,0-53.6,0-3.24,0-5.24-1.99-5.24-5.23,0-11.84,0-23.68-.01-35.52,0-.53-.09-1.09-.24-1.6-1.12-3.72-2.26-7.43-3.39-11.15-.05-.16-.09-.32-.16-.57Zm28.44,24.71v17.2c4.98-2.88,9.88-5.7,14.89-8.6-5.01-2.9-9.92-5.73-14.89-8.6Z"/><path class="cls-1" d="m13.34,15.26c4-1.22,7.8-2.38,11.61-3.53.17-.05.44-.02.57.08,4.02,3.18,8.02,6.37,12.03,9.56.03.02.03.08.07.18-2.12.65-4.24,1.29-6.36,1.94-1.63.5-3.26,1.01-4.89,1.48-.25.07-.63.03-.82-.12-3.95-3.11-7.88-6.24-11.82-9.37-.07-.06-.16-.1-.38-.24Z"/><path class="cls-1" d="m55.24,16.17c-2.86.88-5.6,1.72-8.33,2.56-1.02.31-2.03.64-3.06.91-.23.06-.59.03-.76-.11-3.97-3.13-7.92-6.28-11.87-9.42-.05-.04-.09-.1-.2-.24.33-.1.61-.18.89-.27,3.44-1.05,6.88-2.12,10.33-3.15.28-.08.73-.05.95.12,3.92,3.08,7.81,6.18,11.71,9.28.09.07.17.15.35.31Z"/></g></g></svg>