<?xml version="1.0" encoding="UTF-8"?><svg id="Capa_2" xmlns="http://www.w3.org/2000/svg" viewBox="0 0 97.49 88.55"><defs><style>.cls-1{fill:none;stroke:#fff;stroke-miterlimit:10;stroke-width:.75px;}.cls-2{opacity:.45;}</style></defs><g id="Capa_1-2"><g class="cls-2"><path class="cls-1" d="m97.11,16.7c-.13,1.69-.25,3.38-.38,5.07-.43,5.41-1.2,10.76-3,15.9-1.43,4.08-3.4,7.85-6.67,10.81-2.73,2.47-6.04,3.73-9.61,4.26-4.91.73-9.75.35-14.34-1.68-1.68-.74-3.21-1.82-4.95-2.82-.77,1.39-1.7,2.91-2.49,4.49-3.38,6.7-5.34,13.84-6.16,21.27-.42,3.84-.56,7.72-.79,11.58-.11,1.78-1.02,2.76-2.52,2.58-.92-.11-1.65-.75-1.8-1.67-.1-.59-.12-1.19-.15-1.79-.2-4.43-.25-8.88-.63-13.3-.87-10.01-2.78-19.8-6.99-29.03-.14-.31-.29-.62-.45-.97-.79.36-1.51.74-2.26,1.03-6.94,2.66-13.83,2.76-20.57-.61-3.65-1.82-5.94-4.98-7.76-8.51-2.37-4.59-3.67-9.53-4.21-14.61C.83,13.49.66,8.23.38,2.98.29,1.27,1.19.37,2.88.38c6.52.02,13.03.3,19.45,1.58,4.53.9,8.88,2.28,12.88,4.68,5.2,3.12,8.05,7.69,8.84,13.66.4,2.96.35,5.9-.14,8.84-.17,1.06-.63,1.86-1.73,2.11-1.13.25-1.94-.27-2.53-1.22-2.54-4.09-5.5-7.85-9.24-10.91-2.23-1.83-4.62-3.49-6.97-5.18-.86-.62-2.07-.4-2.74.37-.69.79-.76,1.96-.07,2.77.42.49.95.93,1.49,1.29,9.66,6.42,16.03,15.39,20.16,26.08,2.15,5.57,3.59,11.32,4.55,17.2.06.34.13.67.22,1.12.73-2.17,1.35-4.23,2.11-6.25,5.03-13.36,13.84-23.29,26.82-29.43.75-.35,1.48-.75,1.68-1.65.19-.83.01-1.59-.66-2.14-.8-.65-1.75-.8-2.65-.29-2.58,1.44-5.19,2.84-7.66,4.45-3.52,2.3-6.58,5.17-9.34,8.34-.73.85-1.58,1.37-2.74.92-.76-.29-1.29-.85-1.35-1.67-.41-5.83.46-11.33,4.4-15.93,2.32-2.71,5.34-4.47,8.59-5.83,5.43-2.28,11.14-3.32,16.97-3.74,3.67-.27,7.36-.32,11.04-.49,1.38-.06,2.39.41,2.84,1.79v5.86Z"/></g></g></svg>