<?xml version="1.0" encoding="UTF-8"?><svg id="Capa_2" xmlns="http://www.w3.org/2000/svg" viewBox="0 0 96.49 96.33"><defs><style>.cls-1{fill:none;stroke:#fff;stroke-miterlimit:10;stroke-width:.75px;}.cls-2{opacity:.45;}</style></defs><g id="Capa_1-2"><g class="cls-2"><path class="cls-1" d="m47.14,69.44c0-1.61-.02-3.23-.02-4.84,0-3.12-.01-6.24.01-9.35,0-.44-.22-.56-.53-.6-.47-.07-1-.18-1.34-.4-.6-.4-1.24-.79-1.75-1.35-.86-.94-1.53-1.98-1.8-3.25-.08-.37-.33-.38-.63-.38-4.44,0-8.87.01-13.31.01-7.7,0-15.4,0-23.11,0-.16,0-.33,0-.66,0,.77.77,1.43,1.44,2.1,2.1.34.33.7.62.98,1.02.45.64.5,1.1.07,1.52-.42.41-1.13.37-1.65-.13-.47-.45-.94-.91-1.37-1.4-.8-.9-1.71-1.69-2.57-2.52-.35-.34-.65-.7-.93-1.09-.39-.56-.36-.91.08-1.43.48-.56,1.09-.98,1.6-1.5,1.04-1.07,2.07-2.15,3.11-3.22.53-.54,1.25-.65,1.68-.26.42.37.43.89.13,1.4-.31.52-.81.83-1.21,1.24-.55.57-1.12,1.13-1.68,1.7-.1.1-.25.22-.11.38.1.12.23,0,.34,0,.74-.01,1.48-.07,2.23-.07,8.74.03,17.48.03,26.23.02,2.39,0,4.78.06,7.17-.04.25-.01,1.43-.04,1.45-.37.08-1,.72-1.7,1.23-2.45.9-1.32,2.17-2.14,3.73-2.49.48-.11.49-.39.49-.77,0-11.29,0-22.57.02-33.86,0-.85.06-1.71.08-2.56,0-.14.07-.32-.11-.4-.17-.07-.27.08-.37.18-.81.82-1.62,1.65-2.44,2.46-.21.2-.45.39-.72.51-.5.22-.88.23-1.23-.31-.32-.48-.32-.99.16-1.45,1-.96,1.95-1.98,2.95-2.94.69-.67,1.28-1.45,2.12-1.96.52-.32,1-.3,1.42.12,1.62,1.61,3.24,3.23,4.83,4.87.45.46.48,1.25.08,1.53-.47.32-.96.45-1.54-.13-.82-.83-1.65-1.66-2.47-2.49-.17-.17-.29-.44-.58-.31-.26.12-.13.39-.12.59.23,9.22.04,18.44.11,27.66.02,2.52,0,5.05.01,7.57,0,.22,0,.45,0,.67-.05.87-.05.88.79,1.13,2.1.62,3.53,1.97,4.33,3.99.1.25.18.53.22.78.11.78,1.81.46,2.3.46,10.82,0,21.64,0,32.46,0,.73,0,1.46.16,2.2.11.18-.01.43.08.5-.12.07-.2-.12-.36-.26-.5-.69-.7-1.38-1.4-2.07-2.1-.19-.2-.39-.4-.56-.62-.37-.48-.36-.98.01-1.34.44-.43.97-.48,1.44-.04.8.75,1.55,1.54,2.33,2.31.97.97,1.95,1.93,2.91,2.9.33.34.06.68-.06.99-.09.24-.31.45-.5.64-1.47,1.47-2.94,2.94-4.41,4.41-.27.27-.55.49-.96.5-.41,0-.73-.14-.92-.51-.2-.38-.19-.77.11-1.08.68-.71,1.37-1.41,2.06-2.11.29-.29.58-.58.86-.87.06-.06.17-.12.13-.22-.04-.08-.13-.12-.23-.12-.24,0-.48,0-.72,0-11.66,0-23.31,0-34.97,0-.28,0-.57.03-.85-.01-.54-.08-.82.17-.85.67-.05.97-.66,1.68-1.2,2.37-.93,1.22-2.21,2.01-3.72,2.35-.41.09-.53.26-.5.66.27,4.41.05,8.82.12,13.23,0,.3-.02.59-.02.89m3.36-21.37c.06-2.29-1.92-4.21-4.13-4.39-2.9-.23-4.81,2.22-4.88,4.38-.04,1.4.59,2.56,1.63,3.52,1.01.93,2.19,1.17,3.51,1.04,1.76-.17,3.92-1.98,3.87-4.55Z"/><path class="cls-1" d="m49.33,69.44c0,7.16,0,14.33,0,21.49,0,.33-.06.66-.09.98-.01.12,0,.24.11.29.16.07.21-.11.29-.19.91-.87,1.81-1.75,2.72-2.62.27-.26.55-.51,1-.42,1.01.2,1.13,1.17.47,1.86-1.01,1.04-2.03,2.06-3.06,3.08-.63.62-1.18,1.33-1.93,1.82-.55.36-1.09.29-1.58-.19-.38-.37-.71-.8-1.08-1.18-.74-.75-1.5-1.48-2.28-2.18-.49-.44-.9-.97-1.35-1.46-.54-.58-.57-.95-.13-1.4.39-.41,1.14-.44,1.59-.02.77.74,1.52,1.51,2.27,2.27.17.17.34.35.51.51.07.07.13.21.27.14.13-.06.07-.2.07-.3,0-1.28.02-2.56.02-3.84,0-6.22,0-12.44,0-18.65"/><path class="cls-1" d="m14.49,39.46c-.45.04-.73-.18-.91-.54-.18-.36-.16-.72.13-1.02.63-.65,1.27-1.3,1.92-1.94.43-.42.44-.62,0-1.06-.63-.65-1.28-1.29-1.89-1.97-.37-.41-.36-.92-.06-1.22.48-.47,1.04-.57,1.48-.17.68.62,1.33,1.29,1.97,1.96.29.31.48.32.82.03.63-.55,1.2-1.16,1.8-1.73.27-.26.54-.48.96-.48.42,0,.72.14.91.5.19.36.16.71-.08,1.05-.5.7-1.18,1.22-1.79,1.81-.62.61-.65.81-.01,1.42.52.5,1.04,1,1.54,1.52.33.34.59.73.39,1.25-.29.73-1.4.82-1.94.16-.55-.68-1.22-1.24-1.82-1.87-.25-.27-.45-.14-.66.07-.59.6-1.17,1.19-1.77,1.78-.28.28-.59.52-1,.45Z"/><path class="cls-1" d="m76.96,31.24c.43.07.8.19,1.06.54.36.49.75.96,1.13,1.45.39.49.44.48.83-.04.35-.48.71-.95,1.09-1.4.44-.53,1.06-.62,1.51-.26.48.39.56.95.11,1.52-1.33,1.7-2.55,3.49-3.98,5.1-.36.4-.57.94-1.1,1.19-.53.25-.96.2-1.29-.2-.44-.52-.48-.77-.01-1.28.59-.64.94-1.44,1.55-2.06.25-.26.16-.54-.03-.8-.52-.72-1.03-1.46-1.59-2.16-.29-.36-.18-.74-.09-1.07.1-.37.5-.43.82-.53Z"/></g></g></svg>