<?xml version="1.0" encoding="UTF-8"?><svg id="Capa_2" xmlns="http://www.w3.org/2000/svg" viewBox="0 0 138.41 134.82"><defs><style>.cls-1{fill:#fff;stroke:#fff;stroke-miterlimit:10;stroke-width:.75px;}.cls-2{fill:#ffc000;}.cls-3{fill:#114b8b;}</style></defs><g id="Capa_1-2"><path class="cls-3" d="m35.49,0h88.55c7.93,0,14.37,6.44,14.37,14.37v76.35c0,24.34-19.76,44.1-44.1,44.1H14.37c-7.93,0-14.37-6.44-14.37-14.37V35.49C0,15.9,15.9,0,35.49,0Z"/><path class="cls-1" d="m77.06,89.98c.42,2.35.81,4.57,1.22,6.8.44,2.43.93,4.85,1.33,7.28.12.76.43.99,1.17.96,1.37-.05,2.74,0,4.11-.02.82,0,1.38.33,1.4,1.2.02.88-.53,1.24-1.36,1.24-1.87,0-3.74,0-5.61,0-10.52,0-21.04,0-31.55,0-1.46,0-2-.32-2.01-1.2-.02-.9.54-1.25,1.97-1.25,1.27,0,2.54.03,3.81-.02.28-.01.75-.28.79-.49.91-4.78,1.78-9.56,2.68-14.51h-1.27c-8.48,0-16.96,0-25.44,0-4.03,0-6.51-2.46-6.51-6.47,0-16.93,0-33.86,0-50.8,0-3.97,2.47-6.45,6.42-6.46,8.55,0,17.1,0,25.64-.02.6,0,1.26-.16,1.8-.44,3.07-1.61,6.13-3.24,9.16-4.93.9-.5,1.64-.47,2.52.02,3.03,1.68,6.09,3.32,9.16,4.93.5.26,1.13.42,1.7.42,8.51.03,17.03.02,25.54.02,4.15,0,6.57,2.44,6.57,6.61,0,16.83-.04,33.66.04,50.49.02,3.8-2.71,6.73-6.7,6.66-8.41-.14-16.83-.04-25.24-.04h-1.31Zm-52.74-14.04c0,2.97-.1,5.81.07,8.63.05.79.75,1.77,1.44,2.24.73.5,1.81.68,2.73.68,24.98.03,49.95.03,74.93.03.2,0,.4,0,.6,0,2.27-.08,3.65-1.47,3.67-3.75.02-2.14,0-4.27,0-6.41,0-.45,0-.9,0-1.42-.53,0-.89,0-1.26,0-4.31,0-8.61,0-12.92,0-.3,0-.7.1-.88-.06-.4-.33-.9-.77-.94-1.21-.03-.36.49-.85.88-1.13.25-.18.71-.1,1.07-.1,4.27,0,8.55,0,12.82,0,.38,0,.77,0,1.23,0,0-.53,0-.89,0-1.26,0-13.09,0-26.18,0-39.28,0-2.91-1.29-4.19-4.23-4.19-6.75,0-13.49,0-20.24,0-.32,0-.64.03-.96.04.24.35.53.53.83.69,5.84,3.15,11.7,6.27,17.52,9.46.48.26,1.03.89,1.06,1.37.03.41-.58.99-1.03,1.28-1.01.65-2.09,1.19-3.17,1.71-.56.27-.72.64-.72,1.25.03,3.97.01,7.95.01,11.92,0,.37.02.74-.01,1.1-.06.73-.45,1.21-1.2,1.23-.8.03-1.21-.46-1.3-1.23-.03-.26-.01-.53-.01-.8,0-3.51,0-7.01,0-10.52,0-.34-.03-.68-.05-1.04-.2.03-.27.03-.32.06-1.3.69-2.54,1.52-3.9,2.04-2.06.79-3.14,2.03-2.64,4.32,0,.03,0,.07,0,.1,0,.84-.32,1.45-1.21,1.55-.75.08-1.29-.57-1.3-1.55-.02-1.17-.05-2.34.01-3.51.05-.91-.28-1.61-1.03-2.01-1.17-.63-2.34-1.33-3.6-1.69-8.58-2.5-17.26-2.52-25.94-.68-2.08.44-4.06,1.44-6.03,2.29-.84.36-1.23,1.13-1.17,2.14.08,1.2.03,2.4.01,3.61,0,.81-.41,1.39-1.24,1.4-.84.01-1.24-.57-1.27-1.38-.02-.73-.06-1.47,0-2.2.06-.71-.23-1.07-.84-1.39-4.12-2.19-8.24-4.39-12.33-6.65-.52-.29-1.17-.91-1.18-1.39,0-.47.65-1.11,1.16-1.39,5.79-3.17,11.61-6.29,17.43-9.42.3-.16.58-.34,1.11-.65-.47-.04-.62-.07-.78-.07-7.05,0-14.09-.01-21.14,0-2.45,0-3.81,1.42-3.81,3.9,0,13.23,0,26.45,0,39.68,0,.35.03.71.05,1.13h1.5c18.97,0,37.93,0,56.9,0,.37,0,.74-.02,1.1.02.76.08,1.26.46,1.23,1.29-.04.82-.55,1.17-1.32,1.19-.33.01-.67,0-1,0-19,0-38,0-57,0h-1.41Zm9.77-35.69c3.73,2.01,7.27,3.92,10.88,5.87,1.17-1.91,3.02-2.85,4.97-3.56,1.4-.51,2.86-.93,4.32-1.23,6.74-1.38,13.54-1.5,20.32-.54,4.6.65,9.29,1.35,12.6,5.27,3.54-1.91,7.08-3.82,10.73-5.79-.37-.21-.56-.34-.77-.45-10.13-5.46-20.26-10.91-30.38-16.38-.59-.32-1.01-.25-1.55.04-5.98,3.24-11.98,6.46-17.97,9.68-4.31,2.32-8.63,4.65-13.16,7.09Zm20.7,64.68h22.45c-.89-4.87-1.75-9.65-2.66-14.43-.04-.21-.45-.49-.69-.49-5.24-.03-10.47-.03-15.71,0-.26,0-.7.32-.74.55-.9,4.74-1.76,9.49-2.65,14.36Z"/><path class="cls-2" d="m66.58,66.48c-5.87.02-11.14-.39-16.17-2.26-1.59-.59-3.14-1.5-4.44-2.59-1.7-1.42-1.59-3.53,0-5.11,1.74-1.74,3.99-2.61,6.3-3.07,3.25-.66,6.55-1.24,9.85-1.42,3.71-.2,7.46-.07,11.16.21,3.42.25,6.81.93,9.94,2.43,1.06.51,2.1,1.19,2.95,2.01,1.5,1.44,1.45,3.39.02,4.91-1.72,1.82-4,2.6-6.32,3.25-4.52,1.27-9.15,1.7-13.29,1.64Zm-.34-2.26c4.38.1,8.91-.33,13.32-1.64,1.51-.45,3-1.12,4.35-1.94,1.49-.9,1.44-2.08,0-3.07-.79-.54-1.67-.98-2.57-1.32-3.29-1.25-6.73-1.8-10.23-2.05-5.74-.41-11.46-.34-17.07,1.07-1.92.48-3.81,1.21-5.57,2.12-1.92.99-1.86,2.4,0,3.52.88.53,1.83.96,2.8,1.29,4.78,1.63,9.74,2.1,14.97,2.03Z"/><path class="cls-2" d="m67.31,66.87c-.24,0-.48,0-.73,0-4.97.04-10.81-.24-16.3-2.28-1.63-.61-3.2-1.52-4.55-2.65-.85-.71-1.33-1.61-1.37-2.6-.05-1.07.43-2.17,1.34-3.08,1.58-1.57,3.71-2.62,6.5-3.18,3.13-.63,6.5-1.24,9.9-1.43,3.3-.18,6.86-.11,11.21.21,3.92.29,7.22,1.1,10.08,2.47,1.15.55,2.21,1.27,3.05,2.07,1.63,1.56,1.64,3.75.03,5.46-1.82,1.92-4.21,2.71-6.5,3.36-3.92,1.1-8.18,1.66-12.67,1.66Zm-.72-.78h0c4.69.06,9.12-.49,13.18-1.63,2.19-.61,4.46-1.37,6.14-3.15,1.32-1.39,1.32-3.11,0-4.37-.78-.75-1.77-1.42-2.85-1.94-2.77-1.33-5.98-2.11-9.8-2.39-4.32-.32-7.85-.38-11.12-.21-3.35.18-6.69.79-9.79,1.41-2.64.53-4.63,1.5-6.1,2.97-.76.75-1.15,1.64-1.12,2.5.03.76.41,1.47,1.09,2.04,1.26,1.06,2.8,1.95,4.32,2.52,5.38,2,11.13,2.28,16.03,2.23h0Zm.83-1.48c-.39,0-.78,0-1.18-.01-5.97.08-10.75-.57-15.09-2.05-1.01-.34-1.98-.79-2.88-1.33-1.37-.82-1.63-1.65-1.61-2.21.02-.53.31-1.31,1.63-1.99,1.84-.94,3.74-1.67,5.65-2.15,4.94-1.24,10.25-1.58,17.19-1.08,4.1.29,7.38.95,10.34,2.07.97.37,1.86.83,2.65,1.36,1.08.74,1.29,1.47,1.28,1.95-.01.46-.25,1.15-1.29,1.77-1.4.84-2.94,1.53-4.44,1.98-3.71,1.11-7.83,1.67-12.25,1.67Zm-1.17-.79h0c4.79.11,9.23-.44,13.2-1.63,1.45-.43,2.92-1.09,4.26-1.9.41-.25.9-.64.91-1.13.01-.41-.32-.87-.94-1.29-.73-.5-1.57-.93-2.48-1.28-2.89-1.09-6.11-1.74-10.12-2.02-6.86-.49-12.09-.17-16.95,1.05-1.85.47-3.7,1.17-5.49,2.09-.76.39-1.19.86-1.21,1.32-.02.5.42,1.03,1.24,1.52.85.51,1.77.93,2.73,1.26,4.25,1.45,8.97,2.08,14.84,2.01h0Z"/><path class="cls-2" d="m66.04,80.43c.9,0,1.8,0,2.69,0,.67,0,1.2.36,1.14.97-.05.44-.58,1.15-.93,1.17-1.95.11-3.92.11-5.87-.01-.34-.02-.86-.75-.89-1.19-.05-.61.5-.95,1.16-.94.9.01,1.8,0,2.69,0Z"/><path class="cls-2" d="m66.1,83.03c-1.02,0-2.04-.03-3.06-.09-.6-.04-1.21-.98-1.25-1.54-.03-.35.08-.66.3-.9.28-.3.72-.46,1.25-.46.61,0,1.22,0,1.82,0h.87s.77,0,.77,0c.64,0,1.28,0,1.92,0h.01c.51,0,.95.18,1.23.48.23.25.33.57.29.92-.06.55-.69,1.48-1.29,1.51-.95.05-1.9.08-2.86.08Zm-2.78-2.22c-.29,0-.53.08-.66.22-.08.08-.11.18-.1.31.02.29.4.78.55.83,1.91.11,3.87.12,5.8,0,.14-.04.53-.53.57-.82.01-.13-.02-.23-.09-.32-.13-.14-.37-.22-.65-.22h0c-.64,0-1.28,0-1.93,0h-.77s-.86,0-.86,0c-.61,0-1.22,0-1.83,0h-.02Z"/><circle class="cls-2" cx="88.62" cy="74.68" r="1.73"/></g></svg>