<?xml version="1.0" encoding="UTF-8"?><svg id="Capa_2" xmlns="http://www.w3.org/2000/svg" viewBox="0 0 84.53 94.96"><defs><style>.cls-1{fill:none;stroke:#fff;stroke-miterlimit:10;stroke-width:.75px;}.cls-2{opacity:.45;}</style></defs><g id="Capa_1-2"><g class="cls-2"><path class="cls-1" d="m11.34,47.82c-2.36-2.95-4.63-5.56-6.65-8.36-2.15-2.97-3.82-6.23-4.23-9.97-.38-3.47.75-6.28,3.68-8.32.33-.23.62-.71.66-1.11.36-3.24,2.51-5.53,5.69-5.96,2.85-.38,5.59,1.39,6.73,4.34.09.24.35.56.57.6,2.98.54,5.98,1.04,9.02,1.56.52-1.58,1.03-3.29,1.63-4.97,1.27-3.57,2.81-7.03,5.21-10,1.1-1.35,2.38-2.63,3.79-3.63,3.12-2.21,6.61-2.12,9.78.04,2.67,1.81,4.46,4.38,6,7.14,1.86,3.35,3.15,6.92,4.21,10.59.09.3.18.61.28.95,2.03-.43,4.03-.83,6.01-1.28.19-.04.39-.36.47-.59.92-2.95,3.34-4.82,6.24-4.78,2.9.04,5.21,1.93,6.11,4.94.09.31.49.6.81.77,1.05.54,2.21.9,3.18,1.55,3.04,2.02,4.21,5.42,3.36,9.41-.83,3.91-2.81,7.27-5.2,10.39-1.69,2.21-3.57,4.27-5.39,6.44,1.29,1.46,2.69,2.95,3.98,4.52,2.8,3.41,5.26,7.03,6.42,11.37,1.49,5.55-.75,9.95-5.97,11.69-1.23.41-2.54.67-3.84.82-5.1.59-10.08-.28-15.03-1.45-.34-.08-.68-.17-1.08-.26-.63,1.89-1.27,3.75-1.84,5.63-.07.23.21.62.42.86,3.29,3.66,1.58,9.36-3.19,10.47-.9.21-1.91.13-2.85,0-.6-.08-1-.05-1.44.39-1.32,1.3-2.86,2.27-4.67,2.74-2.45.63-4.7.07-6.77-1.29-2.76-1.81-4.59-4.43-6.15-7.25-1.86-3.35-3.15-6.92-4.2-10.59-.09-.3-.18-.6-.27-.89-2.37.45-4.67.97-7,1.33-4.11.63-8.23.88-12.3-.27-4.28-1.21-6.8-4-7.11-7.95-.2-2.52.52-4.88,1.55-7.15,1.96-4.31,4.87-7.96,8.09-11.38.41-.44.93-.78,1.29-1.07Zm14.15-.33c.14,2.94.27,5.89.46,8.82.02.34.3.77.59.96,4.83,3.33,9.89,6.26,15.2,8.77.29.14.76.16,1.05.02,5.32-2.54,10.42-5.48,15.28-8.82.25-.17.5-.52.53-.81.48-5.95.5-11.9,0-17.85-.02-.29-.26-.65-.51-.82-4.86-3.35-9.96-6.28-15.27-8.83-.29-.14-.76-.14-1.05,0-5.33,2.52-10.42,5.48-15.27,8.82-.27.18-.52.58-.54.9-.18,2.94-.31,5.88-.46,8.83Zm30.24-26.23c-1.02-3.75-2.25-7.34-4.04-10.72-1.31-2.48-2.82-4.81-5.08-6.55-2.85-2.18-5.82-2.21-8.63,0-1.02.8-1.96,1.77-2.74,2.8-3.27,4.3-4.97,9.32-6.43,14.44.13.08.21.15.29.18,4.23,1.62,8.47,3.26,12.71,4.85.31.12.75.05,1.07-.07,1.98-.81,3.93-1.71,5.93-2.47,2.26-.87,4.57-1.63,6.93-2.46Zm-29.64,51.19c-.67-4.75-1.29-9.25-1.96-13.74-.06-.41-.36-.88-.69-1.14-2.35-1.87-4.76-3.68-7.11-5.55-1.19-.95-2.3-2.01-3.52-3.08-.95,1.02-1.93,1.95-2.76,3-1.52,1.9-3.04,3.8-4.41,5.8-1.44,2.09-2.52,4.38-3.06,6.89-.9,4.16.84,7.27,4.86,8.66.42.15.85.27,1.29.37,3.49.8,7.01.6,10.5.08,2.36-.35,4.7-.87,6.87-1.28Zm32.37-.11c-.08-.04,0,.02.09.04,4.13,1.08,8.32,1.8,12.61,1.77,2.57-.01,5.13-.28,7.45-1.53,2.05-1.1,3.3-2.78,3.54-5.15.2-2.01-.3-3.88-1.08-5.69-2.13-4.94-5.52-8.97-9.28-12.71-.03-.03-.12-.02-.18-.02-3.47,2.98-7.08,5.8-10.66,8.65-.28.22-.49.66-.55,1.03-.66,4.49-1.28,8.98-1.94,13.62ZM12.65,45.9c3.76-2.94,7.4-5.77,11-8.64.29-.23.44-.75.5-1.16.22-1.52.31-3.06.55-4.58.46-2.93,1-5.85,1.54-8.97-2.86-.54-5.76-1.09-8.67-1.65-.6,3.11-2.19,5.12-5.11,5.7-3.31.66-5.67-.86-7.23-3.78-1.6,1.11-2.7,2.51-2.75,4.38-.04,1.54.06,3.17.53,4.61,1.85,5.67,5.74,9.97,9.64,14.08Zm51.32-24.52c-1.89.41-3.81.83-5.74,1.26.04.27.05.39.07.51.69,4.33,1.36,8.66,2.09,12.98.08.47.38,1.01.75,1.31,3.33,2.75,6.7,5.46,10.06,8.18.17.13.34.26.54.41,3.44-3.5,6.65-7.13,8.72-11.56.81-1.74,1.38-3.66,1.66-5.56.5-3.47-2.08-6.68-5.47-7.17-1.59,3.7-3.48,5.13-6.63,5.02-2.83-.1-4.8-1.81-6.05-5.37Zm-16.3,68.61c-2.25-2.22-3.05-4.8-1.65-7.63,1.64-3.32,4.51-4.2,8.07-3.29.57-1.82,1.12-3.58,1.67-5.32-.19-.1-.27-.16-.36-.19-4.21-1.61-8.41-3.23-12.63-4.81-.33-.12-.81-.07-1.15.07-2.49,1-4.96,2.08-7.46,3.05-1.75.68-3.55,1.23-5.32,1.83.79,3.61,2.64,8.64,4.72,11.96,1.13,1.8,2.44,3.57,4,4.98,3.22,2.92,7.05,2.59,10.11-.65Zm-21.57-54.59c4.72-2.72,9.17-5.29,13.8-7.95-3.88-1.45-7.68-2.87-11.71-4.38-.72,4.24-1.39,8.22-2.09,12.33Zm2.09,36.54c4.03-1.51,7.83-2.93,11.71-4.38-4.67-2.69-9.13-5.27-13.8-7.96.7,4.14,1.38,8.12,2.09,12.34Zm30.25-36.55c-.7-4.13-1.38-8.12-2.1-12.34-4.07,1.53-7.85,2.94-11.7,4.39,4.62,2.66,9.07,5.23,13.8,7.95Zm-.01,24.22c-4.68,2.7-9.15,5.27-13.79,7.95,3.88,1.45,7.68,2.87,11.71,4.37.72-4.23,1.39-8.21,2.08-12.32Zm-44.34-12.11c3.32,2.74,6.42,5.29,9.63,7.95v-15.91c-3.22,2.66-6.31,5.22-9.63,7.96Zm56.35,0c-3.32-2.74-6.42-5.3-9.63-7.96v15.92c3.23-2.67,6.32-5.23,9.63-7.97Z"/><path class="cls-1" d="m32.57,47.51c-.02-5.36,4.35-9.74,9.71-9.73,5.36,0,9.72,4.39,9.69,9.75-.03,5.35-4.31,9.64-9.66,9.69-5.34.04-9.72-4.32-9.74-9.7Z"/></g></g></svg>