<?xml version="1.0" encoding="UTF-8"?><svg id="Capa_2" xmlns="http://www.w3.org/2000/svg" viewBox="0 0 293.64 47.6"><defs><style>.cls-1{fill:#002c5d;}.cls-2{fill:#cc1719;}.cls-3{fill:#7b6e66;}</style></defs><g id="Capa_1-2"><path class="cls-3" d="m1.99,31.97c.9,0,1.36.49,1.36.49l-.26.39s-.43-.41-1.08-.41c-.83,0-1.38.63-1.38,1.43s.55,1.47,1.38,1.47c.7,0,1.15-.49,1.15-.49l.28.37s-.51.59-1.45.59c-1.12,0-1.91-.86-1.91-1.95s.81-1.91,1.9-1.91Z"/><path class="cls-3" d="m5.91,31.97c1.08,0,1.91.83,1.91,1.9s-.83,1.95-1.91,1.95-1.92-.86-1.92-1.95.84-1.9,1.92-1.9Zm0,3.37c.76,0,1.37-.63,1.37-1.47s-.61-1.43-1.37-1.43-1.38.61-1.38,1.43.62,1.47,1.38,1.47Z"/><path class="cls-3" d="m8.88,32.03h.55l.86,2.02c.08.21.18.5.18.5h.01s.1-.3.18-.5l.86-2.02h.55l.3,3.73h-.52l-.18-2.35c-.02-.23,0-.55,0-.55h-.01s-.11.34-.2.55l-.74,1.68h-.46l-.74-1.68c-.08-.2-.2-.56-.2-.56h-.01s0,.33-.01.56l-.18,2.35h-.52l.3-3.73Z"/><path class="cls-3" d="m13.39,32.03h.52v3.73h-.52v-3.73Z"/><path class="cls-3" d="m15.84,32.49h-1.28v-.45h3.08v.45h-1.28v3.27h-.52v-3.27Z"/><path class="cls-3" d="m19.91,34.69h-1.4l-.37,1.07h-.54l1.34-3.73h.55l1.34,3.73h-.54l-.37-1.07Zm-.7-2.14s-.08.34-.15.53l-.42,1.18h1.13l-.41-1.18c-.06-.19-.14-.53-.14-.53h-.01Z"/><path class="cls-3" d="m22.06,32.49h-1.28v-.45h3.08v.45h-1.28v3.27h-.52v-3.27Z"/><path class="cls-3" d="m26.12,31.97c1.08,0,1.91.83,1.91,1.9s-.83,1.95-1.91,1.95-1.92-.86-1.92-1.95.84-1.9,1.92-1.9Zm0,3.37c.76,0,1.37-.63,1.37-1.47s-.61-1.43-1.37-1.43-1.38.61-1.38,1.43.62,1.47,1.38,1.47Z"/><path class="cls-3" d="m30.38,32.03h.52v3.73h-.52v-3.73Z"/><path class="cls-3" d="m32.03,32.03h.52l1.66,2.42c.14.2.31.54.31.54h.01s-.04-.33-.04-.54v-2.42h.52v3.73h-.51l-1.66-2.42c-.14-.21-.31-.54-.31-.54h-.01s.04.33.04.54v2.42h-.52v-3.73Z"/><path class="cls-3" d="m36.94,32.49h-1.28v-.45h3.08v.45h-1.28v3.27h-.52v-3.27Z"/><path class="cls-3" d="m39.39,32.03h2.16v.45h-1.64v1.17h1.34v.45h-1.34v1.2h1.73v.45h-2.25v-3.73Z"/><path class="cls-3" d="m42.53,32.03h1.14c.39,0,.55.03.7.08.38.14.63.52.63,1.01s-.26.88-.67,1.01h0s.04.06.11.18l.79,1.45h-.59l-.79-1.48h-.8v1.48h-.52v-3.73Zm1.27,1.79c.41,0,.66-.26.66-.68,0-.27-.11-.47-.3-.58-.1-.05-.22-.08-.51-.08h-.6v1.34h.75Z"/><path class="cls-3" d="m46.03,32.03h.52l1.66,2.42c.14.2.31.54.31.54h.01s-.04-.33-.04-.54v-2.42h.52v3.73h-.51l-1.66-2.42c-.14-.21-.31-.54-.31-.54h-.01s.04.33.04.54v2.42h-.52v-3.73Z"/><path class="cls-3" d="m51.99,34.69h-1.4l-.37,1.07h-.54l1.34-3.73h.55l1.34,3.73h-.54l-.37-1.07Zm-.7-2.14s-.08.34-.15.53l-.42,1.18h1.13l-.41-1.18c-.06-.19-.14-.53-.14-.53h-.01Z"/><path class="cls-3" d="m53.28,35.41l1.8-2.59c.14-.21.27-.34.27-.34h0s-.1,0-.28,0h-1.69v-.45h2.62v.34l-1.8,2.59c-.14.21-.27.34-.27.34h0s.1,0,.28,0h1.81v.45h-2.73v-.35Z"/><path class="cls-3" d="m56.89,32.03h.52v3.73h-.52v-3.73Z"/><path class="cls-3" d="m60.21,31.97c1.08,0,1.91.83,1.91,1.9s-.83,1.95-1.91,1.95-1.92-.86-1.92-1.95.84-1.9,1.92-1.9Zm0,3.37c.76,0,1.37-.63,1.37-1.47s-.61-1.43-1.37-1.43-1.38.61-1.38,1.43.62,1.47,1.38,1.47Z"/><path class="cls-3" d="m63,32.03h.52l1.66,2.42c.14.2.31.54.31.54h.01s-.04-.33-.04-.54v-2.42h.52v3.73h-.51l-1.66-2.42c-.14-.21-.31-.54-.31-.54h-.01s.04.33.04.54v2.42h-.52v-3.73Z"/><path class="cls-3" d="m68.96,34.69h-1.4l-.37,1.07h-.54l1.34-3.73h.55l1.34,3.73h-.54l-.38-1.07Zm-.7-2.14s-.08.34-.15.53l-.42,1.18h1.13l-.41-1.18c-.06-.19-.14-.53-.14-.53h-.01Z"/><path class="cls-3" d="m70.54,32.03h.52v3.27h1.67v.45h-2.19v-3.73Z"/><path class="cls-3" d="m73.45,32.03h2.16v.45h-1.64v1.17h1.34v.45h-1.34v1.2h1.73v.45h-2.25v-3.73Z"/><path class="cls-3" d="m.35,37.31h1.36c.68,0,1.17.46,1.17,1.17s-.49,1.18-1.17,1.18h-.84v1.38H.35v-3.73Zm1.28,1.9c.45,0,.72-.28.72-.73s-.27-.71-.72-.71h-.76v1.44h.75Z"/><path class="cls-3" d="m3.61,37.31h2.16v.45h-1.64v1.17h1.34v.45h-1.34v1.2h1.73v.45h-2.25v-3.73Z"/><path class="cls-3" d="m6.68,37.31h1.14c.39,0,.55.03.7.08.38.14.63.52.63,1.01s-.26.88-.67,1.01h0s.04.06.11.18l.79,1.45h-.59l-.79-1.48h-.8v1.48h-.52v-3.73Zm1.27,1.79c.41,0,.66-.26.66-.68,0-.27-.11-.47-.3-.58-.1-.05-.22-.08-.51-.08h-.6v1.34h.75Z"/><path class="cls-3" d="m11.53,37.31h.52v3.27h1.67v.45h-2.19v-3.73Z"/><path class="cls-3" d="m15.94,37.25c1.08,0,1.91.83,1.91,1.9s-.83,1.95-1.91,1.95-1.92-.86-1.92-1.95.84-1.9,1.92-1.9Zm0,3.37c.76,0,1.37-.63,1.37-1.47s-.61-1.43-1.37-1.43-1.38.61-1.38,1.43.62,1.47,1.38,1.47Z"/><path class="cls-3" d="m20.09,40.21s.4.4.95.4c.35,0,.64-.2.64-.55,0-.81-1.81-.63-1.81-1.78,0-.58.5-1.04,1.2-1.04s1.06.37,1.06.37l-.24.43s-.34-.32-.82-.32c-.4,0-.68.25-.68.54,0,.77,1.81.56,1.81,1.77,0,.58-.44,1.05-1.18,1.05-.79,0-1.24-.49-1.24-.49l.3-.4Z"/><path class="cls-3" d="m22.54,37.31h.56l.92,2.63c.07.2.14.51.14.51h.01s.07-.31.14-.51l.93-2.63h.55l-1.37,3.73h-.52l-1.38-3.73Z"/><path class="cls-3" d="m26.4,37.31h.52v3.73h-.52v-3.73Z"/><path class="cls-3" d="m27.99,37.31h.52v3.27h1.67v.45h-2.19v-3.73Z"/><path class="cls-3" d="m30.72,37.31h.52v2.41c0,.57.37.9.94.9s.95-.33.95-.91v-2.4h.52v2.41c0,.83-.6,1.38-1.47,1.38s-1.47-.55-1.47-1.38v-2.41Z"/><path class="cls-3" d="m34.67,37.31h1.36c.68,0,1.17.46,1.17,1.17s-.49,1.18-1.17,1.18h-.84v1.38h-.52v-3.73Zm1.28,1.9c.45,0,.72-.28.72-.73s-.27-.71-.72-.71h-.76v1.44h.75Z"/><path class="cls-3" d="m37.92,37.31h1.36c.68,0,1.17.46,1.17,1.17s-.49,1.18-1.17,1.18h-.84v1.38h-.52v-3.73Zm1.28,1.9c.45,0,.72-.28.72-.73s-.27-.71-.72-.71h-.76v1.44h.75Z"/><path class="cls-3" d="m42.84,37.25c1.08,0,1.91.83,1.91,1.9s-.83,1.95-1.91,1.95-1.92-.86-1.92-1.95.84-1.9,1.92-1.9Zm0,3.37c.76,0,1.37-.63,1.37-1.47s-.61-1.43-1.37-1.43-1.38.61-1.38,1.43.62,1.47,1.38,1.47Z"/><path class="cls-3" d="m46.98,37.31h1.24c1.14,0,1.89.68,1.89,1.86s-.75,1.87-1.89,1.87h-1.24v-3.73Zm1.2,3.27c.84,0,1.39-.5,1.39-1.41s-.55-1.4-1.39-1.4h-.68v2.82h.68Z"/><path class="cls-3" d="m50.94,37.31h2.16v.45h-1.64v1.17h1.34v.45h-1.34v1.2h1.73v.45h-2.25v-3.73Z"/><path class="cls-3" d="m54.01,37.31h.52v3.73h-.52v-3.73Z"/><path class="cls-3" d="m57.01,37.31h1.36c.68,0,1.17.46,1.17,1.17s-.49,1.18-1.17,1.18h-.84v1.38h-.52v-3.73Zm1.28,1.9c.45,0,.72-.28.72-.73s-.27-.71-.72-.71h-.76v1.44h.75Z"/><path class="cls-3" d="m61.93,37.25c1.08,0,1.91.83,1.91,1.9s-.83,1.95-1.91,1.95-1.92-.86-1.92-1.95.84-1.9,1.92-1.9Zm0,3.37c.76,0,1.37-.63,1.37-1.47s-.61-1.43-1.37-1.43-1.38.61-1.38,1.43.62,1.47,1.38,1.47Z"/><path class="cls-3" d="m64.65,37.31h1.36c.68,0,1.17.46,1.17,1.17s-.49,1.18-1.17,1.18h-.84v1.38h-.52v-3.73Zm1.28,1.9c.45,0,.72-.28.72-.73s-.27-.71-.72-.71h-.76v1.44h.76Z"/><path class="cls-3" d="m69.57,37.25c1.08,0,1.91.83,1.91,1.9s-.83,1.95-1.91,1.95-1.92-.86-1.92-1.95.84-1.9,1.92-1.9Zm0,3.37c.76,0,1.37-.63,1.37-1.47s-.61-1.43-1.37-1.43-1.38.61-1.38,1.43.62,1.47,1.38,1.47Z"/><path class="cls-3" d="m72.3,37.31h.52v3.27h1.67v.45h-2.19v-3.73Z"/><path class="cls-3" d="m75.14,37.31h.52v3.73h-.52v-3.73Z"/><path class="cls-2" d="m0,17.94C0,11.38,4.26,7.16,10.94,7.16c3.04,0,5.88.88,7.36,1.59v5.4h-2.87v-3.78c-1.15-.41-2.84-.71-4.36-.71-4.66,0-8.01,2.87-8.01,8.14s3.68,8.17,8.14,8.17c2.7,0,5.27-1.01,7.09-2.06v2.84c-1.52.81-4.12,1.79-7.33,1.79-6.49,0-10.98-3.92-10.98-10.61Z"/><path class="cls-2" d="m24.25,25.74h3.04v-15.77h-3.04v-2.4h9.02v2.4h-3.01v15.77h3.01v2.4h-9.02v-2.4Z"/><path class="cls-2" d="m39.45,27.46v-4.8h2.7v2.94c1.01.27,2.57.54,4.19.54,2.84,0,4.86-.95,4.86-3.11,0-5.27-11.42-2.8-11.42-10.2,0-3.78,3.01-5.67,7.36-5.67,2.2,0,4.59.47,6.28,1.05v4.73h-2.74v-2.97c-.88-.2-2.2-.41-3.45-.41-2.8,0-4.59,1.08-4.59,3.01,0,4.93,11.42,2.63,11.42,10.27,0,4.09-3.31,5.71-7.57,5.71-2.5,0-5.13-.54-7.06-1.08Z"/><path class="cls-2" d="m60.16,25.74h3.04v-15.77h-3.04v-2.4h9.32c4.97,0,8.21,2.53,8.21,6.52s-3.24,6.52-8.21,6.52h-3.31v5.13h3.65v2.4h-9.66v-2.4Zm6.01-7.53h3.38c3.65,0,5.13-1.82,5.13-4.12s-1.49-4.12-5.13-4.12h-3.38v8.24Z"/><path class="cls-2" d="m93.2,30.61s.02-.04.02-.06c0-.01,0-.03,0-.04,0,.04-.02.07-.02.1Z"/><path class="cls-2" d="m93.19,30.62s0-.01,0-.01c0,0,0,.01,0,.02-.03.04,0,.01,0,0Z"/><path class="cls-2" d="m104.05,21.86c-.07-.15-.03.1-.09-.03,0-.08-.06-.12-.09-.19-.03-.23-.09-.45-.07-.7.2.07.31-.22.31-.8.13.1.29.51.39.75.03-.13.15-.1.15-.32,0-.23-.12-.6-.15-.77-.02-.12,0-.11-.01-.2,0-.03-.05-.07-.07-.13-.01-.05.02-.08.01-.09-.03-.1-.1-.18-.14-.29-.1-.26-.14-.56-.24-.69.02-.07,0-.19,0-.3-.1-.25-.21-.49-.26-.77.04,0,.08-.03.1-.07-.15-.37-.1-.48-.13-.76-.11-.28-.21-.56-.28-.88-.24-.44-.53-.83-.78-1.26-.02-.09.07-.01.11,0-.02-.38-.21-1.03-.5-1.65-.29-.62-.67-1.17-1.02-1.4-.07-.16-.18-.29-.31-.43-.02-.02-.03-.03-.05-.05-.86-1.91-1.87-3.65-2.88-5.25,0,0,0-.01-.01-.02.02,0,.03,0,.05-.02-.37-.63-.95-1.47-1.5-2.16-.7-1-1.44-1.99-2.17-2.86-.93-1.06-1.32-.48-.59,1.91.03.1.06.2.09.29,0,.02,0,.04.01.06.12.4.23.81.35,1.21,0-.04-.02-.07-.02-.11.16.54.31,1.09.46,1.64l-.1-.34-.02-.05c.07.25.14.49.2.74.25.93.49,1.87.72,2.8l.23.95c-.03-.12-.05-.23-.08-.34.06.25.12.51.18.76l-.1-.42c.06.27.12.54.19.85,0,0,0-.01,0-.01l-.08-.38c.03.13.06.25.09.38,0,0,0,0,0,0l.25,1.14.03.12c.85,3.99,1.38,7.73,1.26,10.48-.02.02-.03.04-.05.06,0,.09.02.19.03.29,0,.09-.01.18-.02.27-.06.68-.12,1.34-.2,1.99l-.04-.19c-.05-.22-.08-.3-.12-.31-.07,0-.12.33-.18.66,0,.32.02.79-.03.93v1.1s0,.24,0,.24c-.15.91-.33,1.8-.52,2.65v-1.91c0-.65.04-1.11,0-2.05.02-2.17.03-3.95.11-4.8-.03-.93.09-.68.1-1.25,0-.1.05.4.05.21-.05-.36,0-.25,0-.38.09.44.14.3.16,0,.02-.31.02-.79.02-1.08.01-.49.1-.06.13-.19,0-.02-.02-.2,0-.2.02-.01.06.17.07.1.04-.31.13-.16.04-1.05.07.14.05-.25,0-.73-.05-.49-.14-1.08-.18-1.44l-.09-.51c0-.12-.04-.37-.1-.72l-.47-2.27c-.09-.42-.16-.79-.24-1.13-.01.1.1.75.47,2.64-.07-.14.26,1.44.19,1.34-.04-.08-.18-.89-.23-1.05-.32-1.06-.36-.9-.07,1.95-.2-1.07-.4-2.49-.54-3.4-.02.11-.11-.13-.18-.74-.02.51.15,3.33.26,6.11-.12.02-.14,1.98-.2,3.68-.11-.85-.2-.15-.29-.88-.13,1.14-.3,2.11-.45,4.02,0,.24-.02.47-.03.69.03-.13.05-.24.08-.31.1-.29.18-.01.23,1.38.02-.35.01.05.04-.13.11,2.13.24,4.63.41,6.86l.05-.18v.21c-.23.85-.48,1.67-.75,2.44,0,0,0,0,0,0v-.21s-.03-.41-.03-.41l-.05-.74c-.03-.44-.08-.77-.13-.86-.01.75-.05,1-.08,1.51l-.03,1.66v.13c-.02.12-.03.25-.02.37v.04c-.02.37-.05.75-.06,1.1l-.11,3.11c-.31.42-.6.85-.89,1.29l.14-2.06.09-1.31.06-1.03.14-2.83c.03-.4.07-.76.11-1.08.03-.77.07-1.38.11-1.92-.04-.68-.07-1.38-.15-1.65-.11-.34-.39-.51-.53-.37-.06.06-.13.33-.2.55-.02.08-.05.15-.07.2-.04,1.48-.13,3.53-.17,5.31-.06.95-.1,1.79-.14,2.55l-.04,1.07v.49s-.02.22-.02.22h.01c0,.11-.02.19-.03.28.04-.03.04.08.1-.03.01.36.15.43.1.95.09.05.15.24.18.53-.27-.26-.82-.18-.92.23l-.13.13s-.01.04,0,.05c0,.01.02.03.02.05.03.07.05.18.06.3,0,.04.01.09.02.14,0-.05.01-.09.02-.14,0,.12,0,.23,0,.35-.01-.07-.02-.14-.03-.21,0,.02,0,.05-.01.07-.05.27-.1.51-.1.75.08.07.15.12.21.16.02.13.04.27.07.4.03.14.12.24.23.31.02.04.03.07.05.11,0,.15.07.29.16.4.08.33.26.37.45.32.06-.14.11-.22.16-.27,1.07-.47,1.69-1.6,2.14-2.76.2-.3.39-.61.58-.92.11-.13.22-.29.33-.4.25-.24.51-.37.69-.7.02-.2.16-.41.23-.61.16.3.8-.63,1.11-.76.53-.86.4-1.53.62-2.37.02-.23-.11-.21-.08-.36.06-.09,0,.18.08.02.03-.19-.02-.37.08-.58.05.18.21.14.22.37.15-.04.38-.33.53-.39.07-.21.24-.44.36-.67.29-.05.6-.38.94-1.13.1-.08.16,0,.26-.05.35-.52.73-1.05.84-1.8.18.31.35.49.62.02.11-.2.21-.6.33-.79.09-.14.21-.07.29-.1.11-.34.24-.43.31-.78.2.15.25.67.38.84.24.32.67-.65.77-1.43,0-.56-.19-1.02-.3-1.47-.16-.39-.43-.9-.55-1.26.25.42.57.27.74-.62.11.16.2.17.29.18.19-.42.45-1.22.27-1.97-.28-1.09-1.1-1.77-1.53-2.71Z"/><path class="cls-2" d="m94.43,4.51l.17.6c-.11-.38-.21-.76-.32-1.14.04.18.09.36.15.54Z"/><path class="cls-2" d="m94.85,24.81c-.08.41-.17,1.07-.26,1.72-.02.44-.03.8-.07,1.32-.03.04-.06.45-.09.56-.08,1.29-.17,2.14-.26,3.41.04.67.07,1.34.17,1.57.23-3.11.38-5.41.52-8.58Z"/><path class="cls-2" d="m106.43,7.37s0,0,0,0c-.1-.64-.42-1.37-.93-1.79-.49-.4-1-.54-1.51-.48-.78-.23-1.67-.06-2.06.76-.24.51-.26,1.02-.21,1.54-.09.5-.06,1.04.1,1.58.13.44.34.83.59,1.15.34.69.87,1.23,1.74,1.19.86-.04,1.43-.43,1.8-.98.59-.73.8-1.85.47-2.96Z"/><path class="cls-3" d="m121.02,18.69v-.04s-.04-.03-.04-.03c-.07-.07-.13-.13-.2-.2-.42-.43-.82-.84-1.29-.84-.25,0-.49.12-.71.34l-.07.07.03.1c.93,2.61,1.06,5.44.35,7.98l-.05.18c-.3,1.02-.79,2.01-1.46,2.95-.61.85-1.35,1.64-2.22,2.37-1.57,1.31-3.44,2.36-5.55,3.14-1.97.72-4.05,1.16-6.2,1.32-2.17.16-4.32,0-6.33-.45-1.07-.24-2.09-.56-3.05-.96-.53-.23-1.01-.45-1.46-.69-.49-.27-.95-.57-1.38-.91-.85-.67-1.6-1.48-2.21-2.43-.56-.86-1.03-1.85-1.4-2.93-.32-.97-.56-2.02-.71-3.13-.15-1.12-.21-2.17-.19-3.19.03-1.18.18-2.23.44-3.21.15-.55.34-1.08.57-1.56.14-.28.27-.51.42-.75.19-.29.42-.59.64-.87.05-.07.11-.13.16-.2l.58.36s.05.02.1.04l.07.03s.04.02.07.02h.01s.03,0,.03,0c.04,0,.09,0,.12,0,.16,0,.34-.05.49-.13.16-.09.29-.21.39-.35.05-.07.09-.15.12-.23.01-.04.03-.07.04-.11,0-.03.01-.06.02-.09l.03-.31c0-.1.02-.18.05-.28v-.03s.02-.02.03-.03l.04-.05v-.07c-.04-.29-.05-.36-.09-.42-.52-.69-.94-.99-2.04-.9h-.04s-.03.02-.03.02c-.1.06-.2.13-.3.19-.43.29-.83.65-1.2,1.05-.69.75-1.25,1.68-1.69,2.77-.76,1.91-1.1,4.19-.97,6.58.13,2.43.6,4.64,1.42,6.57.9,2.15,2.27,3.97,3.95,5.25.8.62,1.75,1.16,2.88,1.66,1,.43,2.07.79,3.2,1.07,1.77.43,3.65.65,5.59.65.38,0,.77,0,1.16-.03,2.3-.1,4.55-.51,6.68-1.2,2.27-.74,4.29-1.76,6.01-3.05,1.87-1.4,3.37-3.13,4.33-5.03.99-1.92,1.48-4.15,1.42-6.44-.03-1.2-.21-2.42-.53-3.63Z"/><path class="cls-2" d="m115.51,46.78c-.31-.68-.72-1.32-1.16-1.93-.09-.29-.19-.6-.32-.94,0,0,0,0,0,0-.06-.17-.13-.34-.2-.51-.57-1.16-1.53-3.35-2.07-5.33-.42-1.57-1.01-3.37-1.51-5.23-.45-1.54-.59-2.29-.75-3.29l.03-.08c-.12-.58-.32-1.74-.39-2.75-.06-.89,0-1.64.06-1.74,0-.24,0-.48.01-.72,0-1.17.07-2.48.21-3.8.16-1.6.42-3.22.64-4.66.18-.66.11-.21.02.33-.06.39-.13.82-.13.93.26-1.44.56-2.78.89-4.02.12-.57.26-1.16.41-1.75.13-.48.27-.96.41-1.42.07-.23.15-.46.22-.67.08-.22.13-.37.18-.56.05-.12.11-.29.15-.47.02-.09.04-.2.04-.3,0-.1-.02-.23-.13-.25-.21-.02-.4.12-.56.23-.16.11-.31.23-.42.33-.03.05-.05.1-.07.14-.15.1-.34.27-.52.42-.18.16-.36.31-.54.47-.35.33-.69.68-1.03,1.12-.13.17-.25.35-.38.52-.77.66-1.58,2.08-2.44,3.59.17-.39-.44.69-.61.96.14-.1-.68,1.68-.05.49-.46.92-.71,1.67-.92,2.4-.21.73-1.14,1.55-1.41,2.46-.02.26-.6.39-.61.65-.1.68,1.09,1.27,1.01,1.79l-.05-.55c-.07.8-.1,1.07-.16,1.38-.05.31-.11.67-.11,1.63.08-1.06.16-.3.25,1.07.15,1.02.27,2.63.58,4.08.3,1.45.75,2.73,1.07,3.08.46,1.29.98,2.37,1.58,3.42.6,1.05,1.27,2.08,2.11,3.25.92,1.34,1.73,2.24,2.54,3.12l1.25,1.34.66.73s.1.1.16.16c.02.05.04.1.06.14.13.28.29.55.47.78-.02,0-.04,0-.05,0-.07-.02-.13-.04-.19-.06-.1-.04-.18-.08-.26-.13-.08-.05-.19-.12-.33-.25-.15-.12-.32-.31-.57-.61-.16-.15-.62-.59-.13,0l-.41-.41c.25.28.5.56.75.83.27.27.51.48.73.62h0c.09.05.18.11.27.16.02.01.04.03.07.04.02,0,.04.02.07.02.05.02.09.03.14.04.02,0,.04,0,.06,0,.04,0,.07,0,.1,0,.16.17.35.32.56.44.5.3.95-.27.74-.74Z"/><path class="cls-1" d="m216.18,26.49h-.02s0,0,0,0c-.43-.36-.95-.53-1.57-.53-.75,0-1.26.16-1.54.47v-.12c0-.25-.11-.82-.88-.82s-.94.54-.94.82v7.57c0,.25.11.84.9.84s.97-.55.97-.84v-.11h0l-.05-5.2c0-.68.36-1.01,1.07-1.01.24,0,.44.05.6.14.04.02.08.05.11.07l.05.04c.13.13.21.28.25.33.16.2.57.54,1.19.05.56-.44.43-1.02.21-1.3-.07-.09-.22-.26-.34-.37Z"/><path class="cls-1" d="m201.57,25.47c-.74,0-1.48.24-1.71.7v-.62h0c-.02-.25-.16-.72-.83-.72s-.88.45-.9.72v.07s0,11.46,0,11.46c0,.19.12.77.9.77s.96-.55.96-.82v-2.82c.26.33.52.5,1.35.5,1.14,0,2.67-.53,2.67-2.69v-3.86c0-1.24-.46-2.68-2.43-2.68Zm.64,6.14c0,1-.39,1.51-1.16,1.51-.57,0-.91-.28-1.05-.87-.02-.14-.03-.72-.03-1.6v-.75c0-.81.02-1.83.07-1.99.14-.51.51-.77,1.09-.77.72,0,1.08,1.04,1.08,2.05v2.43Z"/><path class="cls-1" d="m207.87,25.47h-.47c-.73,0-1.36.26-1.89.78-.5.5-.75,1.1-.78,1.79h0v.1h0c0,.25.11.84.87.84.69,0,.83-.51.9-.79l.02-.09c.12-.33.23-.57.34-.7.17-.18.42-.27.75-.27.77,0,1.16.51,1.16,1.51v1.11c-.37-.17-.85-.26-1.45-.26-1.16,0-2.67.69-2.67,2.8,0,1.97,1.57,2.41,2.58,2.41.82,0,1.52-.26,1.54-.78v.34c0,.25.11.8.86.8s.92-.52.92-.8v-6.11c0-.74-.26-1.37-.79-1.9-.52-.52-1.15-.78-1.89-.78Zm-.43,7.75c-.63,0-1.14-.49-1.18-1.1v-.02s0-.02,0-.02c0-.01,0-.03,0-.05,0-.65.54-1.18,1.19-1.18s1.19.53,1.19,1.18-.54,1.19-1.19,1.19Z"/><path class="cls-1" d="m220.42,25.47h-.47c-.72,0-1.35.26-1.88.78-.51.5-.76,1.1-.78,1.79h0v.1h0c0,.25.11.84.86.84.69,0,.83-.51.91-.79v-.09c.13-.33.24-.57.35-.7.17-.18.42-.27.75-.27.78,0,1.16.51,1.16,1.51v1.11c-.37-.17-.85-.26-1.45-.26-1.16,0-2.66.69-2.66,2.8,0,1.97,1.56,2.41,2.58,2.41.82,0,1.51-.26,1.54-.78v.34c0,.25.11.8.86.8s.92-.52.92-.8v-6.11c0-.74-.26-1.37-.78-1.9-.53-.52-1.16-.78-1.9-.78Zm-.43,7.75c-.63,0-1.14-.49-1.19-1.1v-.02s0-.02,0-.02c0-.01,0-.03,0-.05,0-.65.54-1.18,1.2-1.18s1.19.53,1.19,1.18-.53,1.19-1.19,1.19Z"/><path class="cls-1" d="m155.21,21.08h.78c1.25,0,2.32-.45,3.21-1.33.89-.89,1.33-1.96,1.33-3.21v-2.21c0-.41-.19-1.34-1.45-1.34s-1.57.89-1.57,1.34v1.4c0,1.69-.61,2.54-1.85,2.54-1.31,0-1.97-.85-1.97-2.54V5.99c0-1.68.61-2.54,1.82-2.54,1.33,0,2,1.06,2,3.17v.94c0,.74.68,1.36,1.53,1.36s1.49-.59,1.49-1.29v-2.32c0-1.25-.44-2.32-1.33-3.21-.89-.88-1.96-1.33-3.21-1.33h-.78c-1.25,0-2.32.45-3.2,1.33-.89.89-1.33,1.96-1.33,3.21v11.24c0,1.25.45,2.32,1.33,3.2.89.88,1.96,1.32,3.2,1.32Z"/><path class="cls-1" d="m166.27,21.08h.78c1.25,0,2.32-.45,3.2-1.33.88-.88,1.33-1.96,1.33-3.2v-6.54c0-1.25-.45-2.32-1.33-3.21-.89-.89-1.96-1.33-3.2-1.33h-.78c-1.25,0-2.32.45-3.21,1.33-.89.89-1.33,1.96-1.33,3.21v6.54c0,1.25.44,2.32,1.33,3.2.89.88,1.96,1.33,3.21,1.33Zm-1.52-10.39c0-1.69.62-2.54,1.84-2.54,1.32,0,1.97.85,1.97,2.54v5.04c0,1.69-.62,2.54-1.85,2.54-1.31,0-1.97-.85-1.97-2.54v-5.04Z"/><path class="cls-1" d="m252.15,5.46h-.78c-1.25,0-2.32.45-3.2,1.33-.89.89-1.33,1.96-1.33,3.21v6.54c0,1.25.44,2.32,1.33,3.2.88.88,1.95,1.33,3.2,1.33h.78c1.25,0,2.32-.45,3.2-1.33.89-.88,1.33-1.96,1.33-3.2v-6.54c0-1.25-.45-2.32-1.33-3.21-.88-.89-1.95-1.33-3.2-1.33Zm1.51,10.27c0,1.69-.61,2.54-1.85,2.54-1.31,0-1.97-.85-1.97-2.54v-5.04c0-1.69.62-2.54,1.85-2.54,1.31,0,1.97.85,1.97,2.54v5.04Z"/><path class="cls-1" d="m185.32,5.46c-2.14,0-3.27,1.33-3.61,1.76-.2-.41-1.33-1.76-2.96-1.76s-2.27.6-2.59.98v-.67c0-.42-.19-1.38-1.49-1.38s-1.6.92-1.6,1.38v13.9c0,.43.19,1.41,1.52,1.41s1.64-.94,1.64-1.41v-.92l-.07-8.88c-.02-1.15.59-1.72,1.83-1.72,1.36,0,1.99.64,1.99,1.7v9.87c0,.41.19,1.35,1.45,1.35s1.56-.89,1.56-1.35v-9.59c0-.54.31-1.99,1.97-1.99,1.31,0,1.97.47,1.97,2.01v9.6c0,.4.18,1.32,1.43,1.32s1.54-.87,1.54-1.32v-9.77c0-1.24-.33-4.52-4.59-4.52Z"/><path class="cls-1" d="m197.5,5.46c-1.25,0-2.51.4-2.91,1.2v-1.05h0c-.03-.43-.26-1.22-1.41-1.22s-1.48.76-1.52,1.22v.1s0,19.4,0,19.4c0,.32.2,1.3,1.52,1.3s1.63-.93,1.63-1.41v-4.76c.45.56.88.84,2.29.84,1.93,0,4.52-.9,4.52-4.54v-6.53c0-2.11-.78-4.55-4.11-4.55Zm1.09,10.39c0,1.7-.65,2.56-1.95,2.56-.97,0-1.56-.49-1.78-1.46-.04-.24-.06-1.21-.06-2.71v-1.28c0-1.35.04-3.08.12-3.37.24-.87.85-1.31,1.85-1.31,1.21,0,1.82,1.77,1.82,3.47v4.11Z"/><path class="cls-1" d="m213.34,20.34V6.87c0-.43-.2-1.41-1.51-1.41s-1.63.93-1.63,1.41v9.81c0,1.15-.6,1.73-1.8,1.73-1.32,0-1.99-.85-1.99-2.54V6.81c0-.41-.18-1.35-1.45-1.35s-1.56.89-1.56,1.35v9.75c0,1.24.39,2.31,1.18,3.19.78.88,1.79,1.32,3.05,1.32s2.26-.52,2.71-1.04c0,.41.19,1.65,1.46,1.65s1.56-.89,1.56-1.36Z"/><path class="cls-1" d="m222.31,18.55h-.77c-.62.01-1.02,0-1.18-.06-.49-.12-.73-.48-.73-1.4v-8.95h.96c.37,0,1.2-.17,1.2-1.28s-.79-1.4-1.2-1.4h-.96v-1.09c0-.41-.19-1.35-1.45-1.35s-1.57.9-1.57,1.35v1.09h-.77c-.36,0-1.2.17-1.2,1.29s.79,1.39,1.2,1.39h.77v9.98c0,2,1.66,3.03,4.94,3.08h0s.21,0,.21,0h.04s0,0,0,0h.52c.36,0,1.18-.16,1.18-1.27s-.78-1.38-1.18-1.38Z"/><path class="cls-1" d="m244.1.78c-1.3,0-1.6.92-1.6,1.39v.85h0v4.35c-.44-.57-1.12-.86-2.3-.86s-2.32.44-3.21,1.33c-.88.89-1.33,1.95-1.33,3.2v5.51c0,1.25.44,2.32,1.33,3.2.89.88,1.95,1.33,3.21,1.33s2.08-.38,2.48-1.15v.46c0,.39.18,1.31,1.41,1.31s1.51-.86,1.51-1.31V2.16c0-.42-.19-1.39-1.49-1.39Zm-1.61,15.71c0,.51-.19.93-.59,1.27-.39.35-.84.52-1.35.52-1.26,0-1.88-.85-1.88-2.54v-4c0-1.69.66-2.54,1.99-2.54,1.22,0,1.83.58,1.83,1.73v5.56Z"/><path class="cls-1" d="m273.21,5.46h-.79c-1.25,0-2.31.45-3.2,1.33-.89.89-1.33,1.96-1.33,3.21v6.54c0,1.25.44,2.32,1.33,3.2.89.88,1.95,1.33,3.2,1.33h.79c1.24,0,2.23-.53,3.2-1.33,1.12-.93,1.31-2.88,1.31-2.88v-.29s0-.04,0-.04v-.09c0-.42-.2-1.37-1.48-1.37s-1.44.91-1.51,1.37v.09c-.22,1.17-.88,1.75-1.43,1.75-.96,0-1.36-.18-1.78-.56-.43-.37-.63-1.03-.63-2v-2.07h6.83v-3.65c0-1.26-.44-2.33-1.33-3.21-.89-.89-1.96-1.33-3.2-1.33Zm1.51,5.7h-3.82v-.44c0-1.72.61-2.58,1.84-2.58,1.31,0,1.98.85,1.98,2.55v.46Z"/><path class="cls-1" d="m288.44,13.2c-.95-.78-2.11-1.18-3.47-1.18-1.67,0-2.53-.62-2.53-1.85,0-.56.21-1.02.62-1.39.41-.34.89-.52,1.45-.52.66,0,1.36.31,1.83,1.12.15.4.2.75.23.91.08.43.51,1.36,1.85,1.15,1.35-.22,1.34-1.19,1.26-1.68,0-.03-.02-.08-.02-.11h0s-.38-1.85-1.5-2.89c-.88-.82-1.97-1.2-3.15-1.2h-.84c-1.31,0-2.44.47-3.37,1.4-.93.93-1.4,2.06-1.4,3.37s.49,2.37,1.46,3.16c.91.77,2.06,1.15,3.42,1.15,1.67,0,2.52.62,2.52,1.85,0,.52-.21.98-.62,1.35-.42.37-.9.56-1.44.56-1.64,0-2-1.9-2.02-2.07-.05-.44-.41-1.44-1.79-1.24-1.37.2-1.41,1.21-1.4,1.71,0,.08.04.35.06.45.03.17.12.57.12.57.26.82.72,1.54,1.4,2.12.9.77,1.95,1.17,3.13,1.17h.84c1.31,0,2.45-.47,3.37-1.4.94-.93,1.41-2.06,1.41-3.38s-.48-2.36-1.42-3.13Z"/><polygon class="cls-1" points="223.99 10.01 223.99 10.03 223.99 10.01 223.99 10.01 223.99 10.01"/><path class="cls-1" d="m229.31,5.46h-.78c-1.24,0-2.3.45-3.19,1.33-.85.84-1.29,1.86-1.32,3.03h-.02v.18h0c0,.41.19,1.42,1.46,1.42,1.17,0,1.41-.88,1.53-1.36l.03-.14c.19-.57.38-.97.58-1.2.28-.3.71-.46,1.27-.46,1.31,0,1.96.85,1.96,2.55v1.86c-.62-.29-1.44-.43-2.45-.43-1.96,0-4.51,1.17-4.51,4.74,0,3.33,2.64,4.07,4.36,4.07,1.39,0,2.56-.43,2.6-1.31v.57c0,.41.2,1.36,1.46,1.36s1.57-.89,1.57-1.36v-10.33c0-1.26-.44-2.33-1.33-3.21-.89-.89-1.95-1.33-3.2-1.33Zm-.73,13.12c-1.06,0-1.93-.82-2-1.86l-.02-.05v-.02s0-.05,0-.09c0-1.11.91-2.02,2.02-2.02s2.02.91,2.02,2.02-.9,2.02-2.02,2.02Z"/><path class="cls-1" d="m266.51,7.2l-.02-.02h0c-.72-.6-1.6-.9-2.66-.9-1.27,0-2.14.27-2.59.8v-.22c0-.42-.2-1.38-1.49-1.38s-1.6.91-1.6,1.38v12.82c0,.43.19,1.41,1.52,1.41s1.57-.94,1.57-1.41v-8.99c0-1.15.6-1.71,1.8-1.71.4,0,.74.07,1.02.23.06.04.12.09.19.13.02.03.05.05.07.07.22.21.35.46.43.55.26.34.97.91,2.01.09.94-.75.72-1.72.35-2.21-.12-.15-.37-.44-.59-.62Z"/><path class="cls-1" d="m256.42,29.92c-1.25,0-1.54.87-1.54,1.33v9.31c0,1.08-.57,1.63-1.71,1.63-1.25,0-1.88-.81-1.88-2.41v-8.58c0-.39-.18-1.27-1.38-1.27s-1.49.83-1.49,1.27v9.25c0,1.18.38,2.19,1.12,3.03.75.83,1.7,1.25,2.89,1.25s2.15-.49,2.57-.99c0,.39.19,1.56,1.38,1.56s1.48-.84,1.48-1.28v-12.77c0-.41-.19-1.33-1.44-1.33Z"/><path class="cls-1" d="m230.57,28.41h3.96c.41,0,1.31-.19,1.31-1.42s-.87-1.52-1.31-1.52h-3.98c-2.02,0-4.3,1.71-4.3,4.3v10.65c0,1.81,1.44,4.3,4.3,4.3h3.98c.41,0,1.31-.19,1.31-1.42s-.87-1.52-1.31-1.52h-3.99c-.87,0-1.21-1.04-1.21-2.14v-3.4h5.2c.41,0,1.31-.19,1.31-1.42s-.87-1.52-1.31-1.52h-5.2v-2.87c0-1.5.43-1.91,1.23-2.02Z"/><path class="cls-1" d="m288.77,31.55l-.02-.02c-.68-.57-1.52-.85-2.53-.85-1.21,0-2.03.26-2.46.75v-.2c0-.4-.19-1.31-1.42-1.31s-1.52.86-1.52,1.31v12.15c0,.4.19,1.34,1.45,1.34s1.55-.89,1.55-1.34v-.18h0l-.07-8.35c0-1.09.56-1.63,1.7-1.63.38,0,.7.07.97.23.06.03.13.07.17.12l.07.06c.21.2.34.45.41.53.25.33.93.86,1.91.07.89-.71.69-1.63.33-2.09-.13-.13-.35-.41-.56-.58Z"/><path class="cls-1" d="m264.48,29.96h-.75c-1.18,0-2.2.42-3.04,1.27-.83.82-1.25,1.84-1.25,3.03v6.16c0,1.19.42,2.2,1.25,3.05.84.83,1.86,1.25,3.04,1.25h.75c1.19,0,2.19-.42,3.04-1.26.84-.85,1.26-1.86,1.26-3.05v-1.12c0-.38-.18-1.28-1.38-1.28s-1.49.85-1.49,1.28v.35h0s0,0,0,0c0,1.61-.58,2.42-1.75,2.42-1.24,0-1.87-.81-1.87-2.41v-4.74c0-1.61.57-2.4,1.72-2.4,1.27,0,1.9.99,1.9,2.99v-.06.15c0,.7.64,1.29,1.45,1.29s1.41-.56,1.41-1.22v-1.38c0-1.19-.42-2.21-1.26-3.04-.85-.85-1.85-1.27-3.04-1.27Z"/><path class="cls-1" d="m245.2,25.47c-1.23,0-1.52.87-1.52,1.31v4.93c-.42-.53-1.07-.82-2.18-.82s-2.2.42-3.05,1.26c-.84.84-1.26,1.86-1.26,3.04v5.22c0,1.19.42,2.2,1.26,3.04.84.84,1.86,1.26,3.05,1.26s1.96-.37,2.35-1.1v.44c0,.37.17,1.23,1.34,1.23s1.43-.81,1.43-1.23v-17.28c0-.4-.19-1.31-1.42-1.31Zm-1.52,14.9c0,.47-.19.88-.56,1.2-.37.32-.79.49-1.28.49-1.19,0-1.78-.81-1.78-2.41v-3.78c0-1.62.63-2.41,1.88-2.41,1.16,0,1.74.55,1.74,1.62v5.29Z"/><path class="cls-1" d="m275.44,29.92h-.75c-1.17,0-2.18.42-3.03,1.26-.81.8-1.22,1.75-1.26,2.87h-.01v.18c0,.38.18,1.34,1.37,1.34,1.12,0,1.34-.83,1.46-1.27l.03-.15c.18-.53.37-.91.55-1.13.26-.29.67-.43,1.2-.43,1.25,0,1.88.81,1.88,2.41v1.78c-.6-.27-1.38-.42-2.33-.42-1.85,0-4.28,1.11-4.28,4.5,0,3.16,2.51,3.87,4.13,3.87,1.32,0,2.43-.42,2.48-1.25v.54c0,.4.17,1.28,1.36,1.28s1.48-.84,1.48-1.28v-1.11h0v-8.69c0-1.18-.42-2.19-1.26-3.03-.84-.85-1.85-1.26-3.04-1.26Zm-.69,12.43c-1.01,0-1.82-.77-1.91-1.76v-.04s0-.04,0-.04c0-.02,0-.05,0-.07,0-1.06.85-1.91,1.91-1.91s1.91.85,1.91,1.91-.86,1.9-1.91,1.9Z"/><path class="cls-1" d="m292.05,4.99h0c.2-.08.36-.24.36-.48,0-.14-.06-.27-.15-.35-.12-.11-.28-.15-.54-.15-.17,0-.34.01-.46.04v1.84h.24v-.81h.23c.22,0,.32.1.37.36.05.24.09.39.12.45h.25c-.04-.07-.08-.25-.14-.51-.05-.19-.14-.33-.28-.38Zm-.31-.1h-.25v-.68s.12-.02.24-.02c.25,0,.43.11.43.35,0,.21-.16.35-.42.35Z"/><path class="cls-1" d="m291.86,3.16c-.98,0-1.78.8-1.78,1.78s.8,1.78,1.78,1.78,1.78-.8,1.78-1.78-.8-1.78-1.78-1.78Zm0,3.28c-.83,0-1.5-.67-1.5-1.5s.67-1.5,1.5-1.5,1.5.67,1.5,1.5-.67,1.5-1.5,1.5Z"/></g></svg>