<?xml version="1.0" encoding="UTF-8"?><svg id="Capa_2" xmlns="http://www.w3.org/2000/svg" viewBox="0 0 250.9 44.76"><defs><style>.cls-1{fill:#23397c;}.cls-2{fill:#ffd300;}.cls-3{fill:#ff9e00;}.cls-4{fill:#00ace7;}.cls-5{fill:#007dce;}.cls-6{fill:none;}.cls-7{fill:#f50000;}.cls-8{fill:#00498d;}</style></defs><g id="Capa_1-2"><path class="cls-1" d="m26.52,44.72c-.69,0-1.31-.16-1.86-.47-.55-.31-.98-.74-1.3-1.3-.31-.55-.47-1.2-.47-1.95s.16-1.4.47-1.95.75-.98,1.3-1.29c.55-.31,1.17-.46,1.86-.46.6,0,1.14.13,1.61.4.48.27.85.67,1.13,1.21.28.54.42,1.24.42,2.09s-.13,1.53-.4,2.08c-.27.55-.64.96-1.12,1.23-.48.27-1.02.41-1.64.41Zm.2-1.45c.4,0,.76-.09,1.08-.27.32-.18.57-.44.77-.79.19-.34.29-.75.29-1.21s-.1-.87-.29-1.21c-.19-.34-.45-.6-.77-.78-.32-.18-.68-.27-1.08-.27s-.76.09-1.08.27c-.32.18-.57.44-.77.78-.19.34-.29.74-.29,1.21s.1.86.29,1.21c.19.34.45.61.77.79.32.18.68.27,1.08.27Zm2.18,1.36v-1.71l.07-1.93-.13-1.93v-4.5h1.67v10.06h-1.6Z"/><path class="cls-1" d="m35.98,44.72c-.8,0-1.5-.16-2.09-.48-.6-.32-1.06-.76-1.39-1.32-.33-.56-.49-1.2-.49-1.91s.16-1.36.48-1.92c.32-.56.76-.99,1.32-1.31.56-.32,1.2-.47,1.92-.47s1.32.15,1.87.46c.55.31.98.74,1.29,1.3.31.56.47,1.22.47,1.98,0,.07,0,.15,0,.24,0,.09-.01.18-.02.26h-5.98v-1.13h5.1l-.66.35c0-.42-.08-.78-.26-1.1s-.42-.56-.73-.75c-.31-.18-.67-.27-1.07-.27s-.77.09-1.08.27c-.31.18-.55.43-.73.75-.17.32-.26.7-.26,1.13v.27c0,.43.1.82.3,1.15s.48.59.83.77c.36.18.77.27,1.24.27.4,0,.77-.06,1.09-.19.32-.13.61-.33.86-.6l.9,1.04c-.32.38-.73.67-1.22.87-.49.2-1.05.31-1.67.31Z"/><path class="cls-1" d="m45.6,44.63v-11.64h2.67v11.64h-2.67Z"/><path class="cls-1" d="m56.04,35.55c.7,0,1.33.14,1.89.42.56.28.99.71,1.31,1.3.32.58.48,1.33.48,2.24v5.12h-2.57v-4.72c0-.72-.16-1.25-.47-1.6-.31-.34-.76-.52-1.33-.52-.41,0-.77.09-1.1.26-.32.17-.58.44-.76.79-.18.35-.27.81-.27,1.36v4.42h-2.57v-8.95h2.46v2.48l-.46-.75c.32-.6.78-1.06,1.37-1.38.59-.32,1.27-.48,2.03-.48Z"/><path class="cls-1" d="m67.29,35.55c.7,0,1.33.14,1.89.42.56.28.99.71,1.31,1.3.32.58.48,1.33.48,2.24v5.12h-2.57v-4.72c0-.72-.16-1.25-.47-1.6-.31-.34-.76-.52-1.33-.52-.41,0-.77.09-1.1.26-.32.17-.58.44-.76.79-.18.35-.27.81-.27,1.36v4.42h-2.57v-8.95h2.46v2.48l-.46-.75c.32-.6.78-1.06,1.37-1.38.59-.32,1.27-.48,2.03-.48Z"/><path class="cls-1" d="m77.45,44.76c-.95,0-1.78-.2-2.51-.6-.73-.4-1.31-.94-1.73-1.64-.42-.69-.63-1.48-.63-2.37s.21-1.69.63-2.39c.42-.69,1-1.24,1.73-1.63.73-.39,1.57-.59,2.51-.59s1.77.2,2.51.59c.74.39,1.31.93,1.73,1.62.42.69.63,1.49.63,2.39s-.21,1.68-.63,2.37c-.42.69-1,1.24-1.73,1.64-.74.4-1.57.6-2.51.6Zm0-2.13c.43,0,.81-.1,1.15-.3.34-.2.61-.48.81-.86.2-.37.3-.81.3-1.32s-.1-.96-.3-1.33c-.2-.37-.47-.65-.81-.85-.34-.2-.73-.3-1.15-.3s-.81.1-1.15.3c-.34.2-.61.48-.82.85-.2.37-.31.81-.31,1.33s.1.95.31,1.32c.2.37.48.66.82.86.34.2.73.3,1.15.3Z"/><path class="cls-1" d="m86.02,44.63l-3.73-8.95h2.66l3.1,7.7h-1.32l3.22-7.7h2.47l-3.74,8.95h-2.65Z"/><path class="cls-1" d="m95.77,44.76c-.69,0-1.29-.12-1.78-.36s-.87-.56-1.14-.97c-.26-.41-.4-.87-.4-1.38s.13-1,.39-1.4c.26-.4.67-.71,1.23-.94.56-.23,1.29-.34,2.19-.34h2.36v1.51h-2.08c-.6,0-1.02.1-1.25.3-.23.2-.34.45-.34.75,0,.33.13.6.39.79.26.19.61.29,1.06.29s.81-.1,1.15-.31c.34-.2.59-.51.74-.91l.4,1.2c-.19.58-.53,1.01-1.02,1.31-.49.3-1.13.45-1.91.45Zm2.7-.13v-1.75l-.16-.38v-3.13c0-.55-.17-.99-.5-1.3s-.85-.47-1.54-.47c-.47,0-.94.07-1.39.22-.46.15-.84.35-1.16.61l-.92-1.81c.48-.34,1.07-.61,1.75-.8s1.37-.28,2.08-.28c1.35,0,2.4.32,3.15.96.75.64,1.12,1.65,1.12,3.01v5.1h-2.41Z"/><path class="cls-1" d="m107.43,44.76c-.96,0-1.81-.2-2.56-.59-.75-.39-1.33-.94-1.76-1.64-.42-.7-.63-1.49-.63-2.38s.21-1.69.63-2.39c.42-.69,1.01-1.24,1.76-1.63.75-.39,1.6-.59,2.56-.59s1.75.2,2.44.59c.69.39,1.2.96,1.53,1.69l-2,1.08c-.23-.42-.52-.73-.87-.93-.35-.2-.72-.3-1.13-.3-.44,0-.84.1-1.19.3-.35.2-.63.48-.83.85-.2.37-.31.81-.31,1.33s.1.96.31,1.33.48.65.83.85c.35.2.75.3,1.19.3.41,0,.78-.1,1.13-.29.35-.19.63-.51.87-.94l2,1.1c-.33.72-.84,1.28-1.53,1.67-.69.39-1.51.59-2.44.59Z"/><path class="cls-1" d="m114.02,34.44c-.47,0-.86-.14-1.15-.42-.3-.28-.45-.62-.45-1.03s.15-.75.45-1.03c.3-.28.68-.42,1.15-.42s.86.13,1.15.39c.3.26.45.6.45,1.01,0,.43-.15.79-.44,1.07-.29.28-.68.42-1.16.42Zm-1.29,10.19v-8.95h2.57v8.95h-2.57Z"/><path class="cls-1" d="m121.76,44.76c-.95,0-1.78-.2-2.51-.6-.73-.4-1.31-.94-1.73-1.64-.42-.69-.63-1.48-.63-2.37s.21-1.69.63-2.39c.42-.69,1-1.24,1.73-1.63.73-.39,1.57-.59,2.51-.59s1.77.2,2.51.59c.74.39,1.31.93,1.73,1.62.42.69.63,1.49.63,2.39s-.21,1.68-.63,2.37c-.42.69-1,1.24-1.73,1.64-.74.4-1.57.6-2.51.6Zm0-2.13c.43,0,.81-.1,1.15-.3.34-.2.61-.48.81-.86.2-.37.3-.81.3-1.32s-.1-.96-.3-1.33c-.2-.37-.47-.65-.81-.85-.34-.2-.73-.3-1.15-.3s-.81.1-1.15.3c-.34.2-.61.48-.82.85-.2.37-.31.81-.31,1.33s.1.95.31,1.32c.2.37.48.66.82.86.34.2.73.3,1.15.3Zm-1.53-8.1l2.23-2.39h2.77l-2.98,2.39h-2.01Z"/><path class="cls-1" d="m133.57,35.55c.7,0,1.33.14,1.89.42.56.28.99.71,1.31,1.3.32.58.48,1.33.48,2.24v5.12h-2.57v-4.72c0-.72-.16-1.25-.47-1.6-.31-.34-.76-.52-1.33-.52-.41,0-.77.09-1.1.26-.32.17-.58.44-.76.79-.18.35-.27.81-.27,1.36v4.42h-2.57v-8.95h2.46v2.48l-.46-.75c.32-.6.78-1.06,1.37-1.38.59-.32,1.27-.48,2.03-.48Z"/><path class="cls-3" d="m146.69,42.47h6.28v2.16h-8.94v-11.64h8.72v2.16h-6.07v7.32Zm-.2-4.79h5.56v2.1h-5.56v-2.1Z"/><path class="cls-3" d="m158.52,44.76c-.84,0-1.59-.19-2.26-.57-.67-.38-1.2-.92-1.59-1.6-.39-.69-.59-1.5-.59-2.43s.2-1.76.59-2.44c.39-.69.92-1.22,1.59-1.6s1.42-.57,2.26-.57c.75,0,1.4.17,1.96.5.56.33,1,.84,1.3,1.51.31.68.46,1.54.46,2.59s-.15,1.9-.45,2.59-.72,1.19-1.28,1.52c-.56.33-1.22.5-2,.5Zm.45-2.13c.42,0,.8-.1,1.14-.3.34-.2.61-.48.82-.86.2-.37.31-.81.31-1.32s-.1-.96-.31-1.33c-.2-.37-.48-.65-.82-.85-.34-.2-.72-.3-1.14-.3s-.81.1-1.15.3c-.34.2-.61.48-.82.85-.2.37-.31.81-.31,1.33s.1.95.31,1.32c.2.37.48.66.82.86.34.2.73.3,1.15.3Zm2.33,2v-1.83l.05-2.66-.16-2.64v-5.2h2.57v12.34h-2.46Z"/><path class="cls-3" d="m169.72,44.76c-.74,0-1.39-.14-1.97-.43-.58-.29-1.03-.73-1.34-1.32s-.48-1.35-.48-2.27v-5.05h2.57v4.67c0,.74.16,1.29.47,1.64s.76.52,1.33.52c.4,0,.75-.09,1.06-.26.31-.17.55-.44.73-.8.18-.36.26-.81.26-1.36v-4.42h2.57v8.95h-2.44v-2.46l.45.71c-.3.62-.73,1.09-1.31,1.4-.58.32-1.21.47-1.89.47Z"/><path class="cls-3" d="m181.42,44.76c-.96,0-1.81-.2-2.56-.59-.75-.39-1.33-.94-1.76-1.64-.42-.7-.63-1.49-.63-2.38s.21-1.69.63-2.39c.42-.69,1.01-1.24,1.76-1.63.75-.39,1.6-.59,2.56-.59s1.75.2,2.44.59c.69.39,1.2.96,1.53,1.69l-2,1.08c-.23-.42-.52-.73-.87-.93-.35-.2-.72-.3-1.13-.3-.44,0-.84.1-1.19.3-.35.2-.63.48-.83.85-.2.37-.31.81-.31,1.33s.1.96.31,1.33.48.65.83.85c.35.2.75.3,1.19.3.41,0,.78-.1,1.13-.29.35-.19.63-.51.87-.94l2,1.1c-.33.72-.84,1.28-1.53,1.67-.69.39-1.51.59-2.44.59Z"/><path class="cls-3" d="m189.47,44.76c-.69,0-1.29-.12-1.78-.36s-.87-.56-1.14-.97c-.26-.41-.4-.87-.4-1.38s.13-1,.39-1.4c.26-.4.67-.71,1.23-.94.56-.23,1.29-.34,2.19-.34h2.36v1.51h-2.08c-.6,0-1.02.1-1.25.3-.23.2-.34.45-.34.75,0,.33.13.6.39.79.26.19.61.29,1.06.29s.81-.1,1.15-.31c.34-.2.59-.51.74-.91l.4,1.2c-.19.58-.53,1.01-1.02,1.31-.49.3-1.13.45-1.91.45Zm2.7-.13v-1.75l-.16-.38v-3.13c0-.55-.17-.99-.5-1.3s-.85-.47-1.54-.47c-.47,0-.94.07-1.39.22-.46.15-.84.35-1.16.61l-.92-1.81c.48-.34,1.07-.61,1.75-.8s1.37-.28,2.08-.28c1.35,0,2.4.32,3.15.96.75.64,1.12,1.65,1.12,3.01v5.1h-2.41Z"/><path class="cls-3" d="m195.71,37.88v-2h6.15v2h-6.15Zm4.68,6.88c-1.04,0-1.86-.27-2.44-.81-.58-.54-.87-1.34-.87-2.4v-7.85h2.57v7.82c0,.38.1.67.3.87.2.21.47.31.81.31.41,0,.75-.11,1.04-.33l.69,1.83c-.26.19-.58.33-.95.42-.37.09-.75.14-1.15.14Z"/><path class="cls-3" d="m205.06,34.44c-.47,0-.86-.14-1.15-.42-.3-.28-.45-.62-.45-1.03s.15-.75.45-1.03c.3-.28.68-.42,1.15-.42s.86.13,1.15.39c.3.26.45.6.45,1.01,0,.43-.15.79-.44,1.07-.29.28-.68.42-1.16.42Zm-1.29,10.19v-8.95h2.57v8.95h-2.57Z"/><path class="cls-3" d="m210.99,44.63l-3.73-8.95h2.66l3.1,7.7h-1.32l3.22-7.7h2.47l-3.74,8.95h-2.65Z"/><path class="cls-3" d="m220.74,44.76c-.69,0-1.29-.12-1.78-.36s-.87-.56-1.14-.97c-.26-.41-.4-.87-.4-1.38s.13-1,.39-1.4c.26-.4.67-.71,1.23-.94.56-.23,1.29-.34,2.19-.34h2.36v1.51h-2.08c-.6,0-1.02.1-1.25.3-.23.2-.34.45-.34.75,0,.33.13.6.39.79.26.19.61.29,1.06.29s.81-.1,1.15-.31c.34-.2.59-.51.74-.91l.4,1.2c-.19.58-.53,1.01-1.02,1.31-.49.3-1.13.45-1.91.45Zm2.7-.13v-1.75l-.16-.38v-3.13c0-.55-.17-.99-.5-1.3s-.85-.47-1.54-.47c-.47,0-.94.07-1.39.22-.46.15-.84.35-1.16.61l-.92-1.81c.48-.34,1.07-.61,1.75-.8s1.37-.28,2.08-.28c1.35,0,2.4.32,3.15.96.75.64,1.12,1.65,1.12,3.01v5.1h-2.41Z"/><rect class="cls-1" x="200.98" y="6.52" width="5.92" height="20.93"/><path class="cls-1" d="m208.73,16.99c0-6.28,4.93-10.88,11.63-10.88s11.63,4.6,11.63,10.88-4.93,10.88-11.63,10.88-11.63-4.6-11.63-10.88m17.28,0c0-3.62-2.48-5.98-5.65-5.98s-5.65,2.36-5.65,5.98,2.48,5.98,5.65,5.98,5.65-2.36,5.65-5.98"/><path class="cls-1" d="m232.81,25.57l1.94-4.37c1.85,1.23,4.49,2.06,6.91,2.06s3.41-.69,3.41-1.7c0-3.32-11.9-.9-11.9-8.67,0-3.74,3.05-6.79,9.27-6.79,2.72,0,5.53.63,7.59,1.82l-1.82,4.39c-2-1.08-3.98-1.61-5.8-1.61-2.48,0-3.38.84-3.38,1.88,0,3.2,11.87.81,11.87,8.52,0,3.65-3.05,6.76-9.27,6.76-3.44,0-6.85-.93-8.82-2.3"/><path class="cls-2" d="m162.8,7.22v-3.4s-.01,0-.02,0v3.4s.01,0,.02,0"/><path class="cls-2" d="m156.74,13.2c1.12,0,2.02.89,2.05,2.01h4v-3.88c-1.08-.06-1.95-.95-1.95-2.05s.86-1.99,1.95-2.05v-3.4c-6.82.05-11.79,4.68-11.79,11.04,0,.11,0,.23,0,.34h3.68c.03-1.11.93-2.01,2.05-2.01"/><path class="cls-7" d="m158.79,15.21h-7.79c.18,6.17,5.1,10.63,11.79,10.68v-10.68h-4Z"/><path class="cls-7" d="m154.68,15.21h4.11s0,0,0-.01h-4.1s0,0,0,.01"/><path class="cls-7" d="m156.74,13.2c-1.12,0-2.02.89-2.05,2.01h4.1c-.03-1.11-.93-2.01-2.05-2.01"/><path class="cls-5" d="m170.82,15.41c0,1.14-.92,2.06-2.06,2.06s-2.06-.92-2.06-2.06c0-.07.01-.14.02-.21h-3.9v10.7s.05,0,.08,0c6.75,0,11.73-4.48,11.9-10.7h-4.01c0,.07.02.14.02.21"/><path class="cls-8" d="m166.73,15.18h-3.9v.02h3.9s0-.01,0-.02"/><path class="cls-8" d="m170.8,15.2h4.01s0-.01,0-.02h-4.01s0,.01,0,.02"/><path class="cls-6" d="m189.29,11.19h-3.29v6.13h3.29c2.45,0,3.68-1.14,3.68-3.05s-1.23-3.08-3.68-3.08Z"/><path class="cls-1" d="m194.86,20.87c2.6-1.26,4.1-3.53,4.1-6.61,0-4.78-3.59-7.74-9.3-7.74h-7.96c.36,1.21.56,2.5.56,3.86,0,.1,0,.2,0,.3l-.06,2.33h-2.1v14.44h5.92v-5.56h3.23l3.8,5.56h6.34l-4.51-6.58Zm-5.56-3.56h-3.29v-6.13h3.29c2.45,0,3.68,1.14,3.68,3.08s-1.23,3.05-3.68,3.05Z"/><path class="cls-2" d="m162.79,11.32s.01,0,.02,0v-4.1s-.01,0-.02,0v4.09Z"/><path class="cls-2" d="m160.84,9.27c0,1.1.86,1.99,1.95,2.05v-4.09c-1.08.06-1.95.95-1.95,2.05"/><path class="cls-2" d="m162.9,11.33c1.14,0,2.06-.92,2.06-2.06s-.92-2.06-2.06-2.06c-.03,0-.06,0-.09,0v4.1s.06,0,.09,0"/><path class="cls-4" d="m168.04,0s-.07,0-.1,0v3.4s.06,0,.09,0c1.14,0,2.06.92,2.06,2.06s-.92,2.06-2.06,2.06c-.03,0-.06,0-.09,0v3.88h.02v-.02h11.98c0-.11,0-.22,0-.32,0-6.39-5.04-11.04-11.91-11.04Z"/><path class="cls-4" d="m175.93,11.38s0-.01,0-.02h-4.07s0,.01,0,.02h0c0,.07-.02.14-.02.21,0,1.14.92,2.06,2.06,2.06s2.06-.92,2.06-2.06c0-.07-.01-.14-.02-.21h0Z"/><polygon class="cls-1" points="0 6.52 5.92 6.52 5.92 22.76 15.91 22.76 15.91 27.45 0 27.45 0 6.52"/><path class="cls-1" d="m33.25,23.39h-8.85l-1.64,4.07h-6.04L25.95,6.52h5.83l9.27,20.93h-6.16l-1.64-4.07Zm-1.73-4.36l-2.69-6.7-2.69,6.7h5.38Z"/><path class="cls-1" d="m62.19,21.71c0,3.62-2.99,5.74-8.61,5.74h-11.3V6.52h10.7c5.5,0,8.19,2.24,8.19,5.47,0,2-1.02,3.62-2.81,4.55,2.36.84,3.83,2.63,3.83,5.17m-14.05-10.91v4.04h4.07c1.97,0,2.99-.69,2.99-2.03s-1.02-2-2.99-2h-4.07Zm8.07,10.26c0-1.43-1.08-2.12-3.11-2.12h-4.96v4.25h4.96c2.03,0,3.11-.69,3.11-2.12"/><path class="cls-1" d="m63.11,16.99c0-6.28,4.93-10.88,11.63-10.88s11.63,4.6,11.63,10.88-4.93,10.88-11.63,10.88-11.63-4.6-11.63-10.88m17.28,0c0-3.62-2.48-5.98-5.65-5.98s-5.65,2.36-5.65,5.98,2.48,5.98,5.65,5.98,5.65-2.36,5.65-5.98"/><path class="cls-1" d="m97.21,21.89h-3.23v5.56h-5.92V6.52h9.57c5.71,0,9.3,2.96,9.3,7.74,0,3.08-1.49,5.35-4.1,6.61l4.51,6.58h-6.34l-3.8-5.56Zm.06-10.7h-3.29v6.13h3.29c2.45,0,3.68-1.14,3.68-3.05s-1.23-3.08-3.68-3.08"/><path class="cls-1" d="m124.96,23.39h-8.85l-1.64,4.07h-6.04l9.24-20.93h5.83l9.27,20.93h-6.16l-1.64-4.07Zm-1.73-4.36l-2.69-6.7-2.69,6.7h5.38Z"/><polygon class="cls-1" points="136.62 11.22 130.19 11.22 130.19 6.52 148.94 6.52 148.94 11.22 142.54 11.22 142.54 27.45 136.62 27.45 136.62 11.22"/><path class="cls-1" d="m165.87,27.14h-6.86c-.59,0-1.06-.48-1.06-1.06s.48-1.06,1.06-1.06h6.86c.59,0,1.06.48,1.06,1.06s-.48,1.06-1.06,1.06"/><path class="cls-1" d="m162.97,29.94h-1.12c-1.18,0-2.13-.95-2.13-2.13h5.37c0,1.18-.95,2.13-2.13,2.13"/></g></svg>