<?xml version="1.0" encoding="UTF-8"?><svg id="Capa_2" xmlns="http://www.w3.org/2000/svg" viewBox="0 0 90.79 89.17"><defs><style>.cls-1{fill:none;stroke:#fff;stroke-miterlimit:10;}.cls-2{opacity:.45;}</style></defs><g id="Capa_1-2"><g class="cls-2"><path class="cls-1" d="m15.68,68.65c-.25.26-.44.47-.64.67-4.47,4.47-8.93,8.93-13.4,13.4-1.18,1.18-1.48,2.52-.77,3.91,1.08,2.11,3.53,2.85,5.41.97,4.5-4.48,8.99-8.97,13.46-13.48.54-.54.87-.6,1.43-.02,4.22,4.26,8.47,8.49,12.71,12.73.12.12.27.23.37.37,1,1.33,2.62,1.69,4.11.93,1.79-.91,2.64-3.76.83-5.53-4.52-4.4-8.8-9.03-13.48-13.27-.55-.5-.43-.76.03-1.22,4.51-4.48,8.98-8.98,13.49-13.46.81-.8,1.18-1.75,1.01-2.82-.21-1.28-.93-2.4-2.22-2.69-1.27-.29-2.6-.27-3.69.84-4.36,4.42-8.78,8.79-13.14,13.2-.55.56-.83.64-1.43.03-3.78-3.85-7.61-7.66-11.44-11.46-.72-.71-1.47-1.39-2.25-2.04-1.06-.88-2.3-.81-3.54-.49-2.28.59-2.39,4.18-1.02,5.45,1.8,1.67,3.48,3.46,5.3,5.13,2.37,2.17,4.57,4.53,6.85,6.8.66.66,1.07,1.56,2.01,2.06ZM55.17,23.59s0,.02,0,.02c2.12,0,4.23.04,6.35-.02.82-.02,1.07.2,1.06,1.05-.05,4.02-.03,8.04-.01,12.07,0,1.41.87,2.67,2.15,3.17,1.33.52,2.43.1,3.43-.81.86-.78,1.19-1.78,1.19-2.9,0-3.85.03-7.69-.02-11.54-.01-.86.26-1.06,1.07-1.04,2.54.05,5.08.02,7.62.02,1.75,0,3.5.06,5.25-.22,1.06-.17,2.35-1.49,2.37-2.54.03-2.57-1.41-4.01-3.99-4.01-3.74,0-7.48-.03-11.22.02-.91.01-1.1-.27-1.09-1.12.05-3.85.05-7.69,0-11.54-.03-2.44-1.25-3.56-3.61-3.7-1.62-.1-3.23,1.39-3.18,3.63.08,3.84-.02,7.69.05,11.54.02,1.02-.32,1.2-1.24,1.19-3.95-.05-7.9.01-11.85-.03-2.41-.03-4.49,2.43-3.18,5.03.46.91,1.16,1.8,2.51,1.76,2.11-.08,4.23-.02,6.35-.02Zm15.17,48.59s0,.02,0,.03c5.36,0,10.73,0,16.09,0,.74,0,1.46,0,2.12-.44,1.17-.77,1.84-1.8,1.72-3.23-.11-1.35-.78-2.34-2.08-2.76-.86-.28-1.77-.34-2.68-.34-9.56,0-19.13,0-28.69,0-.92,0-1.84-.03-2.75,0-2.04.08-3.41,1.52-3.38,3.52.03,1.97,1.28,3.2,3.35,3.21,5.43.02,10.87,0,16.3,0ZM22.33,26h0c3.83-3.26,7.67-6.51,11.51-9.75.92-.78,1.15-1.79.83-2.86-.31-1.03-.95-1.9-2.08-2.23-1.39-.4-2.46.23-3.46,1.08-3.08,2.61-6.16,5.22-9.25,7.83-4.25,3.6-8.5,7.19-12.74,10.8-1.32,1.12-1.49,3.06-.43,4.4.99,1.24,3.03,1.39,4.34.28,3.77-3.18,7.53-6.37,11.29-9.56Zm-8.71-15.07c0,2.53-2.05,4.57-4.57,4.57s-4.57-2.05-4.57-4.57,2.05-4.57,4.57-4.57,4.57,2.05,4.57,4.57Zm22.32,22.88c0,2.53-2.05,4.57-4.57,4.57s-4.57-2.05-4.57-4.57,2.05-4.57,4.57-4.57,4.57,2.05,4.57,4.57Z"/></g></g></svg>