<?xml version="1.0" encoding="UTF-8"?><svg id="Capa_2" xmlns="http://www.w3.org/2000/svg" viewBox="0 0 85.97 86.04"><defs><style>.cls-1{opacity:.45;}.cls-2{fill:none;stroke:#fff;stroke-miterlimit:10;stroke-width:.5px;}</style></defs><g id="Capa_1-2"><g class="cls-1"><path class="cls-2" d="m60.98,39.67c.58,0,1.18-.06,1.75.01,1.02.12,1.82-.31,2.53-.95.73-.64,1.26-1.39.99-2.44-.1-.39.36-.78.08-1.11-.94-1.11-1.72-2.45-3.56-2.22-.96.12-1.95,0-2.92.03-1.79.04-2.93-1.19-3.44-2.54-.49-1.32-.93-2.66-1.41-3.98-.71-1.97-1.49-3.92-2.15-5.91-1.5-4.5-4.55-7.23-9.28-7.59-4.17-.32-8.02,2.04-9.7,5.92-.6,1.39-1.08,2.84-1.61,4.27-.91,2.43-1.95,4.82-2.7,7.29-.47,1.54-2.03,2.63-3.56,2.54-.83-.05-1.67,0-2.51,0-2.52,0-3.53.94-3.7,3.43-.1,1.42.63,2.63,1.99,3.02,1.89.53,3.9.42,5.77.16,3.78-.53,6.63-2.62,8.06-6.26,1.45-3.7,2.72-7.47,4.09-11.2.28-.76.71-1.47,1.4-1.89,1.87-1.13,4.22-.45,5.09,1.73.51,1.28.98,2.57,1.46,3.87.69,1.89,1.34,3.79,2.07,5.67.55,1.42,1.01,2.87,1.96,4.1,1.12,1.46,2.53,2.5,4.18,3.28,1.64.78,3.36.81,5.11.77Z"/><path class="cls-2" d="m.25,9.26c.99-1.77,2.62-2.95,3.98-4.39,1.19-1.25,2.45-2.43,3.65-3.67,1.3-1.34,3.47-1.16,4.65-.04,1.97,1.87,3.92,3.76,5.78,5.74.74.78,1.64,1.47,1.85,2.7.3,1.7-.62,2.86-1.61,3.53-1.3.88-3.18.5-4.09-.59-.21-.26-.45-.49-.69-.74-.3.21-.16.48-.16.7,0,18.77,0,37.54-.02,56.31,0,1.64.65,2.78,2.16,3.46.29.13.57.17.87.16,1.87,0,3.73-.03,5.6.02.66.02.76-.19.76-.79-.02-7.32-.02-14.65,0-21.97,0-1.63.95-2.79,2.43-3.17,2.35-.6,4.27,1.31,4.26,3.46-.03,6.88-.01,13.76-.01,20.63q0,1.82,1.79,1.82c2.48,0,4.96-.02,7.43.02.64,0,.82-.14.82-.81-.02-10.58-.01-21.16-.02-31.74,0-1.48.54-2.59,1.92-3.25,2.01-.98,4.51.65,4.64,2.46.04.54.13,1.09.13,1.63,0,10.28.01,20.55-.02,30.83,0,.76.2.9.91.89,2.78-.04,5.57-.03,8.35,0,.58,0,.8-.08.8-.75-.03-7.24.01-14.48-.04-21.72-.01-1.95,1.19-3.28,2.68-3.54,1.65-.29,3.61.9,3.88,2.58.12.74.14,1.48.14,2.22,0,6.79.01,13.59-.01,20.38,0,.63.12.84.8.83,3.23-.04,6.46-.02,9.69-.02.21,0,.42,0,.91,0-.53-.48-.88-.78-1.21-1.11-.89-.9-1.18-2.72-.34-4.02.73-1.14,1.92-1.63,3.36-1.42.8.11,1.37.47,1.91,1.01,2.21,2.22,4.39,4.47,6.65,6.63,1.2,1.15,1.15,3.4.02,4.49-2.32,2.25-4.59,4.54-6.85,6.85-.41.42-.99.53-1.39.95h-1.67c-.06-.16-.21-.14-.34-.18-1.8-.65-2.74-2.77-1.86-4.65.34-.73,1.07-1.12,1.48-1.85h-1c-19.05,0-38.09,0-57.14,0-.28,0-.57.04-.83-.02-2.42-.61-4.56-1.69-6.14-3.71-1.21-1.55-2.16-3.27-2.17-5.25-.04-19.24-.02-38.48-.03-57.72,0-.2.1-.44-.25-.73-.3.33-.59.69-.92,1.02-1.01,1-2.39,1.19-3.67.6-.98-.45-1.4-1.31-1.84-2.19v-1.84Z"/><path class="cls-2" d="m60.98,39.67c-1.75.04-3.47,0-5.11-.77-1.65-.78-3.06-1.82-4.18-3.28-.95-1.24-1.42-2.69-1.96-4.1-.72-1.88-1.37-3.78-2.07-5.67-.47-1.29-.95-2.59-1.46-3.87-.87-2.18-3.22-2.85-5.09-1.73-.69.41-1.12,1.13-1.4,1.89-1.37,3.73-2.64,7.5-4.09,11.2-1.43,3.63-4.28,5.72-8.06,6.26-1.88.26-3.88.38-5.77-.16-1.37-.39-2.09-1.6-1.99-3.02.17-2.49,1.19-3.43,3.7-3.43.84,0,1.67-.04,2.51,0,1.53.09,3.09-1,3.56-2.54.75-2.48,1.79-4.87,2.7-7.29.54-1.42,1.01-2.87,1.61-4.27,1.68-3.88,5.53-6.24,9.7-5.92,4.73.36,7.78,3.09,9.28,7.59.66,1.99,1.44,3.94,2.15,5.91.48,1.32.92,2.66,1.41,3.98.51,1.35,1.65,2.58,3.44,2.54.97-.02,1.96.1,2.92-.03,1.84-.23,2.61,1.11,3.56,2.22.28.34-.18.72-.08,1.11.27,1.05-.27,1.8-.99,2.44-.72.63-1.51,1.07-2.53.95-.58-.07-1.17-.01-1.75-.01Z"/></g></g></svg>