<?xml version="1.0" encoding="UTF-8"?><svg id="Capa_2" xmlns="http://www.w3.org/2000/svg" viewBox="0 0 99.88 84.76"><defs><style>.cls-1{fill:none;stroke:#fff;stroke-miterlimit:10;stroke-width:.75px;}.cls-2{opacity:.45;}</style></defs><g id="Capa_1-2"><g class="cls-2"><path class="cls-1" d="m36.52,48.04V15.48H6.41v28.58c1.74.86,3.37,1.51,4.83,2.44,3.13,2,6.14,2.02,9.26,0,1.17-.75,2.44-1.48,3.77-1.82,3.08-.81,6.06-.4,8.79,1.4,1.04.68,2.17,1.24,3.46,1.96Zm-30.13-.51c-.03.59-.04.79-.04.99,0,6.98,0,13.96.01,20.95,0,.79.09,1.58.21,2.36,1.13,7.29,8.01,12.89,15.38,12.53,7.87-.38,14.2-6.4,14.58-13.99.14-2.85.06-5.71.07-8.56,0-3.23.02-6.47-.02-9.7,0-.34-.26-.84-.55-.99-1.46-.74-3.06-1.23-4.43-2.09-3.04-1.89-5.95-1.93-8.99-.03-1.29.81-2.69,1.59-4.15,1.96-3.01.76-5.92.31-8.58-1.46-1.04-.69-2.17-1.25-3.47-1.98ZM21.56,3.34c-1.14,0-2.27,0-3.41,0-4.4,0-8.81-.03-13.21.01-3.18.03-5.29,2.88-4.33,5.77.61,1.83,2.23,2.98,4.37,2.98,11.01.02,22.02,0,33.03,0,.27,0,.55-.03.82-.07,1.68-.26,2.84-1.2,3.44-2.77,1.13-2.93-1.02-5.9-4.31-5.92h-16.41Z"/><path class="cls-1" d="m83.52,51.72c2.77-10.72,5.46-21.14,8.17-31.62-9.82-2.54-19.52-5.04-29.31-7.57-2.43,9.41-4.83,18.71-7.15,27.68,1.61,1.43,3.11,2.67,4.5,4.01,1.75,1.69,3.72,2.73,6.2,2.44.98-.12,1.93-.5,2.91-.67,1.45-.25,2.91-.6,4.37-.59,3.07.02,5.48,1.56,7.56,3.71.82.85,1.72,1.63,2.76,2.61Zm-29.12-7.99c-.16.44-.25.62-.3.81-1.72,6.65-3.52,13.29-5.11,19.97-.46,1.93-.64,4.06-.37,6.02,1,7.39,6.92,12.64,14.42,13.05,6.95.38,13.36-4.46,15.21-11.5.92-3.49,1.8-6.99,2.71-10.48.58-2.26,1.17-4.51,1.69-6.52-1.37-1.14-2.76-2.03-3.8-3.21-2.69-3.03-5.8-3.96-9.64-2.55-1.79.66-3.68.88-5.59.58-2.79-.43-4.94-1.95-6.82-3.96-.71-.76-1.53-1.42-2.4-2.21Zm40.52-26.23c.62-.11,1.07-.14,1.49-.27,1.86-.56,3.09-2.25,3.09-4.17,0-1.93-1.2-3.61-3.11-4.15-2.48-.7-4.98-1.31-7.48-1.96-8.25-2.13-16.5-4.27-24.75-6.39-2.77-.71-5.27.78-5.72,3.38-.43,2.43,1.07,4.45,3.79,5.16,9.01,2.33,18.03,4.66,27.04,6.99,1.93.5,3.86.97,5.64,1.42Z"/><path class="cls-1" d="m16.44,65.49c-2.95-.02-5.35-2.46-5.31-5.42.04-2.9,2.48-5.29,5.37-5.27,2.9.02,5.3,2.44,5.32,5.34.01,2.95-2.42,5.37-5.38,5.36Z"/><path class="cls-1" d="m26.45,66.51c2.96-.01,5.33,2.32,5.35,5.27.02,2.99-2.38,5.44-5.33,5.42-2.92-.02-5.31-2.42-5.31-5.35,0-2.95,2.35-5.33,5.29-5.34Z"/><path class="cls-1" d="m70.22,65.49c-2.91,0-5.3-2.36-5.34-5.29-.04-2.93,2.42-5.41,5.35-5.4,2.91,0,5.31,2.4,5.32,5.31.01,2.98-2.37,5.38-5.34,5.38Z"/><path class="cls-1" d="m54.89,71.88c-.01-2.99,2.35-5.38,5.33-5.38,2.93,0,5.3,2.35,5.34,5.29.04,2.93-2.41,5.4-5.35,5.4-2.9,0-5.3-2.4-5.32-5.31Z"/></g></g></svg>