<?xml version="1.0" encoding="UTF-8"?><svg id="Capa_2" xmlns="http://www.w3.org/2000/svg" viewBox="0 0 138.41 134.82"><defs><style>.cls-1{fill:#fff;}.cls-2{fill:#ffc000;}.cls-3{fill:#114b8b;}</style></defs><g id="Capa_1-2"><path class="cls-3" d="m35.49,0h88.55c7.93,0,14.37,6.44,14.37,14.37v76.35c0,24.34-19.76,44.1-44.1,44.1H14.37c-7.93,0-14.37-6.44-14.37-14.37V35.49C0,15.9,15.9,0,35.49,0Z"/><path class="cls-1" d="m21.45,100.66h5.54c0-.42,0-.79,0-1.16,0-5.39,0-10.78,0-16.17,0-1.64.52-2.17,2.13-2.17,4.01,0,8.03,0,12.04,0,1.53,0,2.09.57,2.09,2.13,0,5.39,0,10.78,0,16.17,0,.37,0,.75,0,1.19h7.83c0-.43,0-.83,0-1.23,0-12.6,0-25.19,0-37.79,0-1.92.45-2.37,2.35-2.38,3.88,0,7.75,0,11.63,0,1.82,0,2.29.48,2.29,2.34,0,12.6,0,25.19,0,37.79v1.28h7.83v-1.16c0-9.64,0-19.29,0-28.93,0-1.99.44-2.45,2.39-2.45,3.88,0,7.75,0,11.63,0,1.78,0,2.25.49,2.25,2.27,0,9.64,0,19.29,0,28.93v1.32h7.83c0-.42,0-.85,0-1.29,0-18.12,0-36.24,0-54.36,0-2.44.32-2.76,2.8-2.76,3.71,0,7.41,0,11.12,0,1.94,0,2.36.42,2.36,2.34,0,18.22,0,36.45,0,54.67,0,.44,0,.88,0,1.48.99,0,1.9-.01,2.81,0,1.14.02,1.86.64,1.87,1.61.01.96-.71,1.63-1.83,1.68-.24.01-.48,0-.72,0-32.32,0-64.63,0-96.95,0-2.18,0-2.6-.41-2.6-2.56,0-26.01,0-52.03,0-78.04,0-.31-.02-.62,0-.93.08-.96.78-1.64,1.66-1.63.88.01,1.55.7,1.62,1.67.02.34,0,.69,0,1.03,0,25.23,0,50.45,0,75.68v1.43Zm90.76.03v-55.09h-9.53v55.09h9.53Zm-48.2,0v-38.08h-9.55v38.08h9.55Zm24.1-29.24h-9.55v29.21h9.55v-29.21Zm-48.22,29.21v-16.13h-9.56v16.13h9.56Z"/><path class="cls-1" d="m76.76,46.71c2.56-4.57,7.42-5.04,10.74-2.85,4.52-4.04,9.06-8.1,13.58-12.14-1.38-3.78-.87-6.64,1.55-8.84,2.71-2.47,6.8-2.51,9.58-.1,2.72,2.36,3.26,6.43,1.26,9.43-2.01,3.02-5.96,4.11-9.17,2.44-.82-.43-1.27-.3-1.91.28-3.96,3.6-7.95,7.16-11.96,10.71-.54.47-.66.84-.39,1.55,1.06,2.78.57,5.36-1.47,7.53-2.04,2.16-4.61,2.83-7.43,1.9-2.82-.92-4.44-2.96-4.94-5.9-.05-.32-.35-.79-.6-.84-3.24-.73-6.49-1.4-9.77-2.09-.14.24-.26.44-.38.64-2.19,3.52-6.52,4.56-10.04,2.38-.51-.32-.82-.36-1.33.03-3.91,3.08-7.83,6.13-11.77,9.17-.45.35-.53.64-.35,1.2.88,2.87.32,5.46-1.88,7.54-2.13,2.01-4.7,2.52-7.44,1.5-2.83-1.05-4.42-3.21-4.66-6.21-.22-2.79.92-5.04,3.27-6.56,2.39-1.55,4.9-1.58,7.41-.25.33.18.64.39,1.05.64.73-.56,1.48-1.14,2.23-1.73,3.33-2.59,6.65-5.2,10-7.76.58-.44.69-.8.47-1.52-1.27-4.06,1.21-8.28,5.32-9.16,4.16-.89,8.06,1.85,8.7,6.08.05.33.34.82.6.88,3.24.72,6.49,1.38,9.77,2.07Zm-17.52,1.92c2.16,0,3.92-1.76,3.91-3.92,0-2.16-1.77-3.92-3.93-3.91-2.16,0-3.92,1.77-3.91,3.93,0,2.17,1.76,3.91,3.93,3.91Zm44.32-20.47c-.02,2.18,1.7,3.95,3.86,3.97,2.14.02,3.95-1.74,3.97-3.88.03-2.14-1.74-3.93-3.89-3.95-2.2-.02-3.92,1.68-3.94,3.86Zm-68.49,39.24c2.19.02,3.93-1.68,3.95-3.86.02-2.17-1.71-3.95-3.86-3.98-2.12-.03-3.94,1.75-3.97,3.89-.03,2.14,1.73,3.93,3.89,3.95Zm44.37-17.62c0,2.16,1.76,3.94,3.9,3.94,2.12,0,3.93-1.81,3.93-3.93,0-2.14-1.77-3.91-3.93-3.91-2.19,0-3.9,1.71-3.9,3.9Z"/><path class="cls-2" d="m35.03,71.28c-4.26,0-7.72-3.46-7.72-7.72s3.46-7.72,7.72-7.72,7.72,3.46,7.72,7.72-3.46,7.72-7.72,7.72Zm0-11.32c-1.99,0-3.6,1.62-3.6,3.6s1.62,3.6,3.6,3.6,3.6-1.62,3.6-3.6-1.62-3.6-3.6-3.6Z"/><path class="cls-2" d="m83.36,57.3c-4.13,0-7.5-3.36-7.5-7.5s3.36-7.49,7.5-7.49,7.49,3.36,7.49,7.49-3.36,7.5-7.49,7.5Zm0-10.99c-1.93,0-3.5,1.57-3.5,3.49s1.57,3.5,3.5,3.5,3.49-1.57,3.49-3.5-1.57-3.49-3.49-3.49Z"/></g></svg>