<?xml version="1.0" encoding="UTF-8"?><svg id="Capa_2" xmlns="http://www.w3.org/2000/svg" viewBox="0 0 87.88 90.17"><defs><style>.cls-1{fill:none;stroke:#fff;stroke-miterlimit:10;stroke-width:.75px;}.cls-2{opacity:.45;}</style></defs><g id="Capa_1-2"><g class="cls-2"><path class="cls-1" d="m21.05,80.31c.15-.17.28-.3.39-.44,6.98-9.01,13.96-18.02,20.93-27.03,9.47-12.23,18.93-24.47,28.4-36.7,2.12-2.74,2.98-5.82,2.4-9.26-.58-3.42-3.24-6.11-6.69-6.45-4.46-.44-7.86,1.61-10.17,5.27-3.6,5.72-7.02,11.56-10.51,17.35-5.04,8.35-10.07,16.7-15.1,25.05-4.33,7.16-8.66,14.32-12.99,21.48-1.19,1.97-2.37,3.96-3.57,5.97,2.34,1.6,4.61,3.16,6.92,4.74Zm22.49-60.71c-13.14-3.84-26.1-7.63-39.07-11.41-.89,1.64-1.7,3.14-2.58,4.78,11.62,6.04,23.16,12.03,34.76,18.05,2.32-3.83,4.55-7.53,6.9-11.41Zm19.12,13.09c-2.78,3.6-5.44,7.05-8.15,10.55,9.83,8.66,19.56,17.25,29.37,25.9,1.21-1.43,2.34-2.75,3.52-4.14-8.23-10.75-16.43-21.46-24.74-32.31Zm-33.78,43.65c-1.64,2.13-3.15,4.1-4.7,6.12,3.53,2.42,6.96,4.77,10.5,7.19.77-1.12,1.54-2.17,2.21-3.28.14-.23,0-.78-.19-1.02-.91-1.13-1.89-2.21-2.84-3.31-1.61-1.85-3.23-3.7-4.97-5.7Zm-13.86-9.48c-3.94-1.43-7.68-2.8-11.43-4.14-.21-.07-.63.02-.75.19-.79,1.07-1.53,2.19-2.32,3.34,3.53,2.42,6.96,4.77,10.49,7.19,1.33-2.18,2.62-4.3,4.01-6.58Zm1.7-59.01c.77.23,1.44.44,2.11.63,2.24.65,2.37.59,3.4-1.45.5-.98.24-2.1-.61-2.68-.84-.58-2.06-.47-2.73.38-.75.96-1.4,2-2.16,3.12Zm66.58,45.63c.77-1.12,1.6-2.06,2.09-3.16.26-.59.16-1.58-.19-2.15-.29-.47-1.15-.74-1.79-.81-.79-.08-2.57,1.85-2.62,2.64,0,.13.06.29.14.4.76,1,1.53,1.99,2.36,3.07Zm-10.04-13.11c.29-.42.49-.72.7-1.02.27-.4.58-.79.8-1.21.5-.97.22-2.1-.62-2.69-.88-.61-2.09-.44-2.78.48-.27.36-.59,1.05-.43,1.31.66,1.06,1.49,2.02,2.34,3.13ZM32.57,12.48c1.15.35,2.18.66,3.2.97.18.05.36.14.54.13.2,0,.44-.05.59-.17.92-.78,1.01-2.29.2-3.11-.91-.93-2.3-.88-3.14.17-.48.6-.88,1.27-1.4,2.02Z"/></g></g></svg>