<?xml version="1.0" encoding="UTF-8"?><svg id="Capa_2" xmlns="http://www.w3.org/2000/svg" viewBox="0 0 93.34 93.37"><defs><style>.cls-1{fill:none;stroke:#fff;stroke-miterlimit:10;stroke-width:.75px;}.cls-2{opacity:.45;}</style></defs><g id="Capa_1-2"><g class="cls-2"><path class="cls-1" d="m46.66,21.03c1.22-1.23,2.31-2.35,3.41-3.46.73-.73,1.6-1.07,2.63-.82,2.09.51,2.8,2.95,1.29,4.56-1.3,1.38-2.66,2.71-4.02,4.03-.42.41-.6.82-.6,1.41.02,5.06.01,10.12.01,15.19v.88h7.92c-.08-2.54,1.14-4.32,2.92-5.9,5.41-4.81,7.84-10.86,7.08-18.08C66.08,7.21,55.09-1.29,43.57.65c-8.39,1.42-14.18,6.28-16.71,14.41-2.52,8.13-.46,15.37,5.66,21.31,1.9,1.84,3.67,3.59,3.51,6.46h7.92c0-5.52,0-10.98-.02-16.43,0-.31-.22-.67-.45-.91-1.3-1.34-2.64-2.65-3.95-3.98-1.25-1.26-1.33-2.89-.23-4.02,1.13-1.16,2.79-1.08,4.08.21,1.07,1.06,2.11,2.15,3.27,3.33ZM6,76.99c12.7,1.59,25.28,3.16,37.88,4.74.2-3.66-2.78-7.42-6.56-8.24-3.29-.71-6.61-1.29-9.92-1.93-6.06-1.16-12.11-2.32-18.17-3.46-1.59-.3-3.14.8-3.2,2.4-.08,2.13-.02,4.27-.02,6.49Zm81.36,0c0-2.09.01-4.08,0-6.07-.02-1.98-1.48-3.15-3.43-2.78-9.07,1.72-18.15,3.43-27.22,5.18-3.69.71-6.06,2.92-7.06,6.54-.16.58-.18,1.2-.28,1.88,12.74-1.59,25.31-3.16,37.99-4.75Zm-37.89-6.32c.17-.1.32-.18.46-.28,1.59-1.13,3.34-1.93,5.25-2.29,7.38-1.42,14.77-2.82,22.15-4.22,2.12-.4,4.24-.81,6.4-1.23,0-1.01,0-1.94,0-2.87-.02-2.1-1.47-3.26-3.53-2.83-5.88,1.23-11.77,2.46-17.65,3.71-2.97.63-5.96,1.14-8.67,2.64-2.73,1.51-4.67,4.63-4.42,7.38Zm-5.43.16c-.14-.88-.2-1.53-.36-2.15-.8-3.13-2.9-5.15-5.85-6.12-2.73-.9-5.55-1.54-8.36-2.16-5.49-1.21-10.99-2.34-16.5-3.49-1.59-.33-3.12.6-3.3,2.14-.14,1.17-.03,2.38-.03,3.61,3.13.6,6.2,1.18,9.27,1.77,6.41,1.22,12.82,2.43,19.22,3.67,2.09.4,3.97,1.32,5.9,2.74Zm13.41-22.46h-21.4c0,.73-.04,1.42,0,2.1.25,3.35,2.83,5.92,6.1,5.98,3.01.06,6.02.05,9.03,0,2.67-.04,5.05-1.83,5.77-4.4.32-1.14.32-2.36.49-3.67ZM19.25,30.25c-.17.05-.6.12-.96.32-1.65.92-3.31,1.84-4.91,2.84-1.24.77-1.59,2.32-.9,3.57.68,1.23,2.22,1.8,3.49,1.13,1.75-.92,3.47-1.92,5.14-2.98,1.03-.64,1.36-1.89.98-3.03-.37-1.13-1.41-1.87-2.85-1.85Zm54.59-.1c-1.25.09-2.3.88-2.64,2.06-.34,1.17.1,2.37,1.19,3.04,1.51.92,3.06,1.79,4.6,2.66,1.46.82,3.07.43,3.84-.9.77-1.34.32-2.91-1.13-3.78-1.47-.88-2.95-1.74-4.45-2.57-.43-.24-.94-.35-1.42-.52ZM22.25,9.26c-.04-.75-.38-1.56-1.18-2.04-1.67-1.01-3.35-2.02-5.07-2.92-1.28-.67-2.81-.13-3.51,1.09-.7,1.24-.38,2.8.86,3.57,1.63,1.02,3.29,1.99,4.99,2.88,1.8.93,3.9-.4,3.9-2.58Zm51.72,2.88c.15-.03.51-.04.78-.19,1.83-1.03,3.69-2.02,5.44-3.17,1.13-.74,1.31-2.34.6-3.48-.72-1.17-2.23-1.66-3.47-1-1.72.92-3.41,1.9-5.07,2.93-1.04.64-1.4,1.87-1.04,3.01.35,1.13,1.39,1.9,2.75,1.9ZM15.03,23.91c.87,0,1.74.01,2.61,0,1.61-.03,2.79-1.18,2.8-2.69.01-1.51-1.18-2.7-2.77-2.72-1.77-.02-3.55-.02-5.32,0-1.58.02-2.77,1.23-2.76,2.73.02,1.47,1.18,2.64,2.72,2.68.9.02,1.8,0,2.7,0Zm63.22,0c.93,0,1.86.02,2.79,0,1.53-.05,2.69-1.23,2.69-2.71,0-1.48-1.16-2.67-2.7-2.7-1.8-.03-3.61-.03-5.41,0-1.54.02-2.71,1.2-2.73,2.66-.02,1.51,1.16,2.71,2.74,2.75.87.02,1.74,0,2.61,0Z"/><path class="cls-1" d="m45.77,93c-1.63-.24-3.26-.5-4.89-.71-7.08-.9-14.16-1.78-21.24-2.66-5.5-.69-10.99-1.38-16.49-2.05-1.77-.21-2.93-1.46-2.75-3.05.18-1.56,1.53-2.57,3.27-2.36,5.47.67,10.93,1.37,16.4,2.05,5.62.7,11.23,1.39,16.85,2.09,3.02.38,6.03.83,9.05,1.1,1.24.11,2.51-.09,3.76-.25,9.89-1.23,19.78-2.48,29.66-3.72,3.38-.42,6.75-.82,10.13-1.28,1.69-.23,2.76.51,3.45,1.96v1.45c-.55.96-1.19,1.8-2.39,1.96-.54.07-1.07.14-1.61.2-6.02.75-12.05,1.5-18.07,2.25-6.08.76-12.17,1.52-18.25,2.29-1.69.21-3.38.48-5.06.72h-1.81Z"/><path class="cls-1" d="m46.66,21.03c-1.16-1.19-2.2-2.27-3.27-3.33-1.29-1.29-2.96-1.36-4.08-.21-1.1,1.13-1.02,2.76.23,4.02,1.31,1.33,2.65,2.63,3.95,3.98.23.23.45.6.45.91.03,5.45.02,10.91.02,16.43h-7.92c.15-2.88-1.62-4.63-3.51-6.46-6.12-5.93-8.18-13.17-5.66-21.31C29.39,6.93,35.18,2.07,43.57.65c11.52-1.94,22.51,6.55,23.73,18.19.76,7.22-1.67,13.27-7.08,18.08-1.78,1.58-3,3.36-2.92,5.9h-7.92v-.88c0-5.06,0-10.12-.01-15.19,0-.59.18-1.01.6-1.41,1.36-1.32,2.72-2.65,4.02-4.03,1.51-1.61.81-4.05-1.29-4.56-1.03-.25-1.9.09-2.63.82-1.1,1.11-2.2,2.22-3.41,3.46Z"/><path class="cls-1" d="m6,76.99c0-2.22-.06-4.36.02-6.49.06-1.59,1.61-2.7,3.2-2.4,6.06,1.14,12.12,2.3,18.17,3.46,3.31.63,6.63,1.21,9.92,1.93,3.78.82,6.76,4.58,6.56,8.24-12.59-1.57-25.18-3.15-37.88-4.74Z"/><path class="cls-1" d="m87.36,77c-12.68,1.58-25.25,3.16-37.99,4.75.1-.68.12-1.3.28-1.88,1-3.63,3.37-5.83,7.06-6.54,9.07-1.75,18.14-3.45,27.22-5.18,1.95-.37,3.41.81,3.43,2.78.02,1.99,0,3.97,0,6.07Z"/><path class="cls-1" d="m49.47,70.68c-.25-2.75,1.69-5.86,4.42-7.38,2.71-1.51,5.71-2.01,8.67-2.64,5.88-1.24,11.77-2.47,17.65-3.71,2.05-.43,3.51.74,3.53,2.83,0,.93,0,1.86,0,2.87-2.16.41-4.28.82-6.4,1.23-7.38,1.41-14.77,2.8-22.15,4.22-1.91.37-3.66,1.16-5.25,2.29-.14.1-.29.18-.46.28Z"/><path class="cls-1" d="m44.03,70.83c-1.92-1.43-3.81-2.34-5.9-2.74-6.41-1.24-12.82-2.45-19.22-3.67-3.07-.58-6.14-1.17-9.27-1.77,0-1.23-.11-2.43.03-3.61.18-1.54,1.71-2.47,3.3-2.14,5.5,1.15,11.01,2.28,16.5,3.49,2.81.62,5.63,1.26,8.36,2.16,2.95.98,5.05,2.99,5.85,6.12.16.62.21,1.27.36,2.15Z"/><path class="cls-1" d="m57.45,48.37c-.16,1.31-.17,2.54-.49,3.67-.72,2.57-3.1,4.36-5.77,4.4-3.01.05-6.02.05-9.03,0-3.27-.06-5.86-2.63-6.1-5.98-.05-.68,0-1.37,0-2.1h21.4Z"/><path class="cls-1" d="m19.25,30.25c1.44-.02,2.48.72,2.85,1.85.38,1.14.05,2.38-.98,3.03-1.68,1.05-3.39,2.06-5.14,2.98-1.28.67-2.82.1-3.49-1.13-.69-1.25-.34-2.8.9-3.57,1.61-.99,3.26-1.92,4.91-2.84.36-.2.79-.26.96-.32Z"/><path class="cls-1" d="m73.84,30.16c.47.17.98.28,1.42.52,1.5.83,2.98,1.69,4.45,2.57,1.45.87,1.9,2.44,1.13,3.78-.77,1.33-2.38,1.72-3.84.9-1.54-.87-3.09-1.74-4.6-2.66-1.1-.67-1.53-1.87-1.19-3.04.34-1.18,1.39-1.98,2.64-2.06Z"/><path class="cls-1" d="m22.25,9.26c0,2.18-2.09,3.51-3.9,2.58-1.7-.88-3.36-1.86-4.99-2.88-1.24-.77-1.56-2.33-.86-3.57.69-1.23,2.22-1.77,3.51-1.09,1.73.91,3.4,1.91,5.07,2.92.8.48,1.14,1.29,1.18,2.04Z"/><path class="cls-1" d="m73.97,12.15c-1.36,0-2.39-.77-2.75-1.9-.36-1.14,0-2.37,1.04-3.01,1.66-1.03,3.35-2.01,5.07-2.93,1.24-.66,2.75-.16,3.47,1,.71,1.15.53,2.74-.6,3.48-1.75,1.15-3.61,2.14-5.44,3.17-.27.15-.63.16-.78.19Z"/><path class="cls-1" d="m15.03,23.91c-.9,0-1.8.02-2.7,0-1.54-.04-2.71-1.21-2.72-2.68-.02-1.51,1.17-2.71,2.76-2.73,1.77-.03,3.55-.02,5.32,0,1.59.02,2.78,1.21,2.77,2.72-.01,1.51-1.2,2.66-2.8,2.69-.87.02-1.74,0-2.61,0Z"/><path class="cls-1" d="m78.25,23.91c-.87,0-1.74.02-2.61,0-1.58-.04-2.77-1.24-2.74-2.75.02-1.47,1.2-2.64,2.73-2.66,1.8-.03,3.61-.03,5.41,0,1.53.03,2.7,1.22,2.7,2.7,0,1.48-1.16,2.66-2.69,2.71-.93.03-1.86,0-2.79,0Z"/></g></g></svg>